<svg xmlns="http://www.w3.org/2000/svg" viewBox="0 0 456.28 261.05"><defs><style>.cls-1{fill:#e4f0f9;}.cls-2{fill:#48d5cf;}.cls-12,.cls-3{fill:#7d8bb6;}.cls-3{opacity:0.45;}.cls-4{fill:#00adae;}.cls-18,.cls-5{fill:#007c79;}.cls-6{opacity:0.51;}.cls-7{fill:#354c70;}.cls-70,.cls-8{fill:#feb06d;}.cls-21,.cls-64,.cls-9{fill:#d84a19;}.cls-10,.cls-14{fill:#253956;}.cls-11{fill:#bc310c;}.cls-13{fill:#95a5ce;}.cls-14{opacity:0.54;}.cls-15,.cls-25,.cls-63,.cls-71{fill:#fff;}.cls-16{fill:#f9d1b7;}.cls-17{fill:#fff4ee;}.cls-18{opacity:0.52;}.cls-19{fill:#00b1c9;}.cls-20{fill:#0cdfef;}.cls-21,.cls-26{opacity:0.66;}.cls-22,.cls-41{fill:#6e7984;}.cls-23{fill:#ced3db;}.cls-24{fill:#a9b6c9;}.cls-25{opacity:0.43;}.cls-27{fill:#edf1f7;}.cls-28{fill:#414a51;}.cls-29{fill:#738e02;}.cls-30,.cls-38,.cls-39{fill:#88b206;}.cls-31{fill:#769103;}.cls-32{fill:#e9ffa4;}.cls-33{fill:#71f4ea;}.cls-34{fill:#ccfffa;}.cls-35{fill:#d2fffb;}.cls-36{fill:#6b251f;}.cls-37{fill:#a4cf3a;}.cls-38,.cls-50{opacity:0.42;}.cls-39,.cls-68{opacity:0.65;}.cls-40{opacity:0.48;}.cls-41,.cls-64{opacity:0.39;}.cls-42,.cls-67{opacity:0.36;}.cls-43{fill:#57636d;}.cls-44{fill:#2d353a;}.cls-45{fill:#2a3f5e;}.cls-46{fill:#91423c;}.cls-47{fill:#9797c4;}.cls-48{fill:#e9def7;}.cls-49{fill:#bebddf;}.cls-51,.cls-63{opacity:0.55;}.cls-52{fill:#41ecf9;}.cls-53{fill:#1fc8cc;}.cls-54{fill:#06bcc1;}.cls-55,.cls-66{opacity:0.44;}.cls-56{fill:#172230;}.cls-57{fill:#af8d00;}.cls-58{fill:#eabd00;}.cls-59{fill:#ffe576;}.cls-60{fill:#f8d11d;}.cls-61{fill:#ffa402;}.cls-62{fill:#fffae6;}.cls-65,.cls-67{fill:#939caa;}.cls-66,.cls-68{fill:#f7f7f7;}.cls-69{fill:#e6ebf4;}.cls-70,.cls-71{opacity:0.62;}</style></defs><g id="Layer_2" data-name="Layer 2"><g id="Layer_2-2" data-name="Layer 2"><path class="cls-1" d="M192.8,72h-1.44a8.25,8.25,0,0,0-11.8-5.74A13.44,13.44,0,0,0,160,63,17.24,17.24,0,0,0,129.16,72H129a2.84,2.84,0,0,0-2.84,2.84h0A2.84,2.84,0,0,0,129,77.63H192.8a2.84,2.84,0,0,0,2.84-2.84h0A2.84,2.84,0,0,0,192.8,72Z"/><circle class="cls-1" cx="162.57" cy="54.46" r="2.99"/><circle class="cls-1" cx="181.95" cy="58.4" r="2.36"/><polygon class="cls-2" points="114.32 237.14 64.14 237.14 64.14 202.79 89.41 174.92 114.32 202.79 114.32 237.14"/><rect class="cls-3" x="64.13" y="233.09" width="50.18" height="4.05"/><polygon class="cls-4" points="80.49 237.14 30.31 237.14 30.31 202.79 55.59 174.92 80.49 202.79 80.49 237.14"/><rect class="cls-5" x="83.74" y="211.98" width="7.01" height="1.72" rx="0.86"/><rect class="cls-5" x="83.14" y="232.41" width="7.01" height="1.72" rx="0.86"/><rect class="cls-5" x="34.47" y="225.21" width="7.01" height="1.72" rx="0.86"/><rect class="cls-5" x="37.96" y="223.49" width="7.01" height="1.72" rx="0.86"/><rect class="cls-5" x="34.65" y="221.94" width="7.01" height="1.72" rx="0.86"/><rect class="cls-5" x="65.05" y="233.66" width="7.01" height="1.72" rx="0.86"/><rect class="cls-5" x="71.54" y="217.61" width="7.01" height="1.72" rx="0.86"/><rect class="cls-5" x="56.13" y="192.03" width="5.41" height="1.33" rx="0.67"/><rect class="cls-5" x="58.24" y="193.37" width="5.41" height="1.33" rx="0.67"/><rect class="cls-5" x="34.3" y="210.76" width="5.41" height="1.33" rx="0.67"/><rect class="cls-5" x="36.41" y="212.1" width="5.41" height="1.33" rx="0.67"/><g class="cls-6"><rect class="cls-5" x="106.27" y="223.26" width="5" height="1.23" rx="0.61" transform="translate(217.54 447.75) rotate(180)"/><rect class="cls-5" x="104.13" y="224.49" width="5" height="1.23" rx="0.61" transform="translate(213.26 450.21) rotate(180)"/><rect class="cls-5" x="106.27" y="225.72" width="5" height="1.23" rx="0.61" transform="translate(217.54 452.67) rotate(-180)"/></g><polygon class="cls-7" points="55.59 174.92 90.07 174.92 114.98 202.79 80.51 202.79 55.59 174.92"/><path class="cls-4" d="M32.82,206.39a1.65,1.65,0,0,1-1.2-2.77L55.78,178a1.65,1.65,0,1,1,2.4,2.26L34,205.87A1.61,1.61,0,0,1,32.82,206.39Z"/><path class="cls-4" d="M81.05,209.37a1.64,1.64,0,0,1-1.22-.54l-26.2-28.62A1.65,1.65,0,1,1,56.06,178l26.2,28.62a1.65,1.65,0,0,1-1.21,2.76Z"/><rect class="cls-8" x="88.19" y="157.92" width="8.96" height="28.4"/><polygon class="cls-9" points="88.19 186.31 82.75 180.23 82.74 157.92 88.19 157.92 88.19 186.31"/><path class="cls-4" d="M78.62,202.8h35.93a0,0,0,0,1,0,0v5.39a0,0,0,0,1,0,0H83.85A5.23,5.23,0,0,1,78.62,203v-.16A0,0,0,0,1,78.62,202.8Z"/><path class="cls-10" d="M81.61,205.32a1.64,1.64,0,0,1-1.22-.54L56.22,178.35,31.68,204.79a1.64,1.64,0,1,1-2.41-2.23L55,174.81a1.63,1.63,0,0,1,1.21-.53h0a1.64,1.64,0,0,1,1.21.54l25.38,27.74a1.64,1.64,0,0,1-1.21,2.76Z"/><rect class="cls-9" x="88.92" y="182.16" width="4.96" height="1.61" rx="0.81"/><rect class="cls-9" x="92.39" y="179.81" width="3.27" height="1.06" rx="0.53"/><rect class="cls-9" x="89.4" y="161.96" width="3.27" height="1.06" rx="0.53"/><rect class="cls-11" x="83.45" y="165.86" width="3.27" height="1.06" rx="0.53"/><rect class="cls-11" x="83.26" y="177.7" width="3.27" height="1.06" rx="0.53"/><path class="cls-10" d="M115.65,205.88H79.83a1.65,1.65,0,0,1,0-3.29h35.82a1.65,1.65,0,0,1,0,3.29Z"/><path class="cls-12" d="M82,238.68H27.79a1,1,0,1,1,0-2H82a1,1,0,0,1,0,2Z"/><path class="cls-13" d="M116.74,238.68H79.94a1,1,0,0,1,0-2h36.8a1,1,0,1,1,0,2Z"/><rect class="cls-14" x="83.46" y="196.66" width="6.32" height="1.86" rx="0.93"/><rect class="cls-14" x="86.81" y="193.97" width="6.32" height="1.86" rx="0.93"/><rect class="cls-14" x="75.19" y="182.72" width="6.32" height="1.86" rx="0.93"/><rect class="cls-14" x="64.97" y="177.24" width="6.32" height="1.86" rx="0.93"/><rect class="cls-14" x="102.33" y="198.43" width="6.32" height="1.86" rx="0.93"/><rect class="cls-15" x="109.55" y="210.7" width="1.73" height="9.17" rx="0.87"/><circle class="cls-11" cx="84.09" cy="172.23" r="0.68"/><circle class="cls-11" cx="85.76" cy="175.63" r="0.25"/><path class="cls-16" d="M95.39,172.62a.65.65,0,0,1-.65-.66V161.85a.66.66,0,1,1,1.31,0V172A.65.65,0,0,1,95.39,172.62Z"/><path class="cls-16" d="M95.39,177.79a.66.66,0,0,1-.65-.66v-2.26a.66.66,0,1,1,1.31,0v2.26A.66.66,0,0,1,95.39,177.79Z"/><path class="cls-17" d="M95.39,169.76a.66.66,0,0,1-.65-.66v-4.93a.66.66,0,1,1,1.31,0v4.93A.66.66,0,0,1,95.39,169.76Z"/><rect class="cls-15" x="46.42" y="198.75" width="17.35" height="19.09"/><rect class="cls-18" x="44.22" y="218.9" width="21.18" height="1.91"/><rect class="cls-7" x="44.22" y="217.84" width="21.18" height="1.05"/><rect class="cls-19" x="47.57" y="200.02" width="15.04" height="16.55"/><polygon class="cls-20" points="55.37 216.57 54.15 216.57 57.45 200.02 58.67 200.02 55.37 216.57"/><polygon class="cls-20" points="52.74 216.57 50.2 216.57 53.49 200.02 56.03 200.02 52.74 216.57"/><rect class="cls-7" x="80.31" y="155.78" width="19.68" height="2.22" rx="1.11"/><rect class="cls-21" x="82.75" y="158" width="14.4" height="1.32"/><rect class="cls-22" x="141.33" y="49.09" width="1.42" height="30.91"/><polygon class="cls-23" points="158.24 238.2 126.81 238.2 126.81 74.05 141.9 60.23 158.24 74.05 158.24 238.2"/><polygon class="cls-24" points="158.24 238.2 126.81 238.2 142 237.65 141.9 60.23 158.24 74.05 158.24 238.2"/><rect class="cls-22" x="121.23" y="82.45" width="20.71" height="149.08"/><rect class="cls-15" x="154.63" y="166.21" width="6.25" height="6.4"/><rect class="cls-15" x="146.37" y="166.21" width="6.25" height="6.4"/><rect class="cls-23" x="141.94" y="82.45" width="20.71" height="149.08"/><rect class="cls-15" x="153.29" y="84.89" width="6.25" height="6.4"/><rect class="cls-15" x="145.03" y="84.89" width="6.25" height="6.4"/><rect class="cls-15" x="145.03" y="95.06" width="6.25" height="6.4"/><rect class="cls-15" x="153.29" y="105.22" width="6.25" height="6.4"/><rect class="cls-15" x="153.29" y="115.39" width="6.25" height="6.4"/><rect class="cls-15" x="145.03" y="125.55" width="6.25" height="6.4"/><rect class="cls-15" x="153.29" y="135.72" width="6.25" height="6.4"/><rect class="cls-15" x="145.03" y="135.72" width="6.25" height="6.4"/><rect class="cls-15" x="145.03" y="156.05" width="6.25" height="6.4"/><rect class="cls-15" x="153.29" y="145.88" width="6.25" height="6.4"/><rect class="cls-25" x="153.29" y="95.06" width="6.25" height="6.4"/><rect class="cls-25" x="145.03" y="105.22" width="6.25" height="6.4"/><rect class="cls-25" x="145.03" y="115.39" width="6.25" height="6.4"/><rect class="cls-25" x="153.29" y="125.55" width="6.25" height="6.4"/><rect class="cls-25" x="153.29" y="156.05" width="6.25" height="6.4"/><rect class="cls-25" x="145.03" y="145.88" width="6.25" height="6.4"/><g class="cls-26"><rect class="cls-15" x="132.59" y="84.89" width="6.25" height="6.4"/><rect class="cls-15" x="124.33" y="84.89" width="6.25" height="6.4"/><rect class="cls-15" x="132.59" y="95.06" width="6.25" height="6.4"/><rect class="cls-15" x="124.33" y="95.06" width="6.25" height="6.4"/><rect class="cls-15" x="132.59" y="105.22" width="6.25" height="6.4"/><rect class="cls-15" x="124.33" y="105.22" width="6.25" height="6.4"/><rect class="cls-15" x="132.59" y="115.39" width="6.25" height="6.4"/><rect class="cls-15" x="124.33" y="115.39" width="6.25" height="6.4"/><rect class="cls-15" x="132.59" y="125.55" width="6.25" height="6.4"/><rect class="cls-15" x="124.33" y="125.55" width="6.25" height="6.4"/><rect class="cls-15" x="132.59" y="135.72" width="6.25" height="6.4"/><rect class="cls-15" x="124.33" y="135.72" width="6.25" height="6.4"/><rect class="cls-15" x="132.59" y="166.21" width="6.25" height="6.4"/><rect class="cls-15" x="124.33" y="166.21" width="6.25" height="6.4"/><rect class="cls-15" x="132.59" y="156.05" width="6.25" height="6.4"/><rect class="cls-15" x="124.33" y="156.05" width="6.25" height="6.4"/><rect class="cls-15" x="132.59" y="145.88" width="6.25" height="6.4"/><rect class="cls-15" x="124.33" y="145.88" width="6.25" height="6.4"/></g><rect class="cls-27" x="236.77" y="67.39" width="29.36" height="15.81"/><rect class="cls-22" x="190.47" y="3.76" width="4.89" height="44.05"/><rect class="cls-28" x="191.97" width="1.88" height="44.05"/><path class="cls-29" d="M83.9,215.33h38.23a0,0,0,0,1,0,0v0a25.54,25.54,0,0,1-25.54,25.54H83.9a0,0,0,0,1,0,0V215.33A0,0,0,0,1,83.9,215.33Z" transform="translate(206.03 456.2) rotate(-180)"/><path class="cls-30" d="M95.19,213.42h2.1a0,0,0,0,1,0,0V220a1.05,1.05,0,0,1-1.05,1.05h0A1.05,1.05,0,0,1,95.19,220v-6.63a0,0,0,0,1,0,0Z" transform="translate(276.06 372.59) rotate(154.72)"/><path class="cls-30" d="M93.86,217.35h1.29a0,0,0,0,1,0,0v4.07a.65.65,0,0,1-.65.65h0a.65.65,0,0,1-.65-.65v-4.07a0,0,0,0,1,0,0Z" transform="translate(273.79 378.02) rotate(154.72)"/><path class="cls-31" d="M95.58,217.26H96.7a0,0,0,0,1,0,0v3.52a.56.56,0,0,1-.56.56h0a.56.56,0,0,1-.56-.56v-3.52A0,0,0,0,1,95.58,217.26Z" transform="translate(276.74 376.52) rotate(154.72)"/><path class="cls-31" d="M98.91,215.69H100a0,0,0,0,1,0,0v3.52a.56.56,0,0,1-.56.56h0a.56.56,0,0,1-.56-.56v-3.52a0,0,0,0,1,0,0Z" transform="translate(282.4 372.11) rotate(154.72)"/><path class="cls-32" d="M106.77,210.26h1.86a0,0,0,0,1,0,0v5.86a.93.93,0,0,1-.93.93h0a.93.93,0,0,1-.93-.93v-5.86A0,0,0,0,1,106.77,210.26Z" transform="translate(217.59 426.19) rotate(179.41)"/><path class="cls-32" d="M104.83,212.9H106a0,0,0,0,1,0,0v3.6a.57.57,0,0,1-.57.57h0a.57.57,0,0,1-.57-.57v-3.6a0,0,0,0,1,0,0Z" transform="translate(212.99 428.87) rotate(179.41)"/><path class="cls-31" d="M106.37,213.45h1a0,0,0,0,1,0,0v3.11a.49.49,0,0,1-.49.49h0a.49.49,0,0,1-.49-.49v-3.11A0,0,0,0,1,106.37,213.45Z" transform="translate(215.93 429.4) rotate(179.41)"/><path class="cls-31" d="M109.63,213.42h1a0,0,0,0,1,0,0v3.11a.49.49,0,0,1-.49.49h0a.49.49,0,0,1-.49-.49v-3.11A0,0,0,0,1,109.63,213.42Z" transform="translate(222.44 429.3) rotate(179.41)"/><path class="cls-2" d="M331.5,247l115.62-6.73c-1.26-.84-22.31-28.79-32-42.72a8.06,8.06,0,0,0-12.19-1.22h0c-3.31,3.17-6.1,2.94-9.13-.51L381,181.15a8.06,8.06,0,0,0-11.8-.35l-39.4,39.94,0-4.27"/><path class="cls-4" d="M286.92,158.88l-76.88,71v19.95H404.83v-10.3s-34.48-44.13-59.74-76.06a39.75,39.75,0,0,0-31.2-15.1h0A39.75,39.75,0,0,0,286.92,158.88Z"/><path class="cls-1" d="M356.11,153.17h.95a5.42,5.42,0,0,1,5.31-4.34,5.33,5.33,0,0,1,2.42.58,8.82,8.82,0,0,1,12.86-2.08,11.3,11.3,0,0,1,20.19,5.84H398a1.86,1.86,0,0,1,1.86,1.86h0a1.86,1.86,0,0,1-1.86,1.86H356.11a1.86,1.86,0,0,1-1.86-1.86h0A1.86,1.86,0,0,1,356.11,153.17Z"/><circle class="cls-1" cx="355.05" cy="145.64" r="1.35"/><path class="cls-33" d="M398.14,203.34a6.36,6.36,0,0,1-4.68-2.05l-6.7-7.38a1.25,1.25,0,1,1,1.86-1.68l6.7,7.37a3.8,3.8,0,0,0,4.92.6l4.22-2.84a1.25,1.25,0,0,1,1.4,2.08l-4.22,2.83A6.26,6.26,0,0,1,398.14,203.34Z"/><path class="cls-33" d="M430.22,224a1.26,1.26,0,0,1-1-.51l-13.9-18.85-2.7-3.55a5.26,5.26,0,0,0-2.15-1.84,1.25,1.25,0,1,1,1.05-2.27,7.6,7.6,0,0,1,3.13,2.65l2.67,3.51L431.22,222a1.24,1.24,0,0,1-.26,1.75A1.2,1.2,0,0,1,430.22,224Z"/><path class="cls-33" d="M435.93,231.78a1.27,1.27,0,0,1-1-.51l-2.51-3.4a1.26,1.26,0,0,1,2-1.49l2.51,3.4a1.25,1.25,0,0,1-.27,1.75A1.2,1.2,0,0,1,435.93,231.78Z"/><path class="cls-34" d="M424.62,216.58a1.25,1.25,0,0,1-1-.51l-11-14.95a1.25,1.25,0,1,1,2-1.49l11,15a1.25,1.25,0,0,1-1,2Z"/><circle class="cls-4" cx="403.06" cy="227.7" r="1.06"/><circle class="cls-4" cx="400.02" cy="223.68" r="0.75"/><circle class="cls-4" cx="398.82" cy="226.73" r="0.53"/><circle class="cls-4" cx="394.63" cy="220.59" r="1.1"/><path class="cls-33" d="M358.32,189.08a1.23,1.23,0,0,1-1-.49l-5.45-7.07a1.24,1.24,0,0,1,.22-1.75,1.26,1.26,0,0,1,1.76.22l5.45,7.07a1.26,1.26,0,0,1-.23,1.76A1.19,1.19,0,0,1,358.32,189.08Z"/><path class="cls-33" d="M382.54,220.43a1.24,1.24,0,0,1-1-.48L360.41,192.6a1.25,1.25,0,0,1,2-1.54l21.14,27.36a1.25,1.25,0,0,1-.23,1.75A1.19,1.19,0,0,1,382.54,220.43Z"/><path class="cls-33" d="M388,227.54a1.26,1.26,0,0,1-1-.49l-3-3.9a1.25,1.25,0,1,1,2-1.53l3,3.9a1.27,1.27,0,0,1-.22,1.76A1.3,1.3,0,0,1,388,227.54Z"/><path class="cls-35" d="M372.58,207.58a1.26,1.26,0,0,1-1-.49L363.82,197a1.25,1.25,0,0,1,2-1.53l7.77,10.08a1.27,1.27,0,0,1-.22,1.76A1.3,1.3,0,0,1,372.58,207.58Z"/><polygon class="cls-36" points="132.53 215.66 132.51 213.82 132.76 213.82 132.78 215.66 132.53 215.66"/><path class="cls-37" d="M111,238.49a27.67,27.67,0,0,1,55.34,0Z"/><path class="cls-38" d="M129.85,238.49a18.26,18.26,0,1,1,36.52,0Z"/><path class="cls-37" d="M308.68,238.49a27.67,27.67,0,1,1,55.34,0Z"/><path class="cls-39" d="M308.68,238.49a21.27,21.27,0,0,1,42.54,0Z"/><path class="cls-30" d="M126.89,227h0a1.37,1.37,0,0,1,1.37,1.37V237a0,0,0,0,1,0,0h-2.73a0,0,0,0,1,0,0v-8.62A1.37,1.37,0,0,1,126.89,227Z" transform="translate(1.23 -0.67) rotate(0.3)"/><path class="cls-30" d="M130.3,230.89h0a.84.84,0,0,1,.84.84V237a0,0,0,0,1,0,0h-1.68a0,0,0,0,1,0,0v-5.3A.84.84,0,0,1,130.3,230.89Z" transform="translate(1.24 -0.68) rotate(0.3)"/><path class="cls-31" d="M128.14,231.72h0a.72.72,0,0,1,.72.72V237a0,0,0,0,1,0,0h-1.45a0,0,0,0,1,0,0v-4.57a.72.72,0,0,1,.72-.72Z" transform="translate(1.24 -0.67) rotate(0.3)"/><path class="cls-31" d="M123.35,231.7h0a.72.72,0,0,1,.72.72V237a0,0,0,0,1,0,0h-1.45a0,0,0,0,1,0,0v-4.57a.72.72,0,0,1,.72-.72Z" transform="translate(1.24 -0.65) rotate(0.3)"/><path class="cls-30" d="M356.71,227h0a1.37,1.37,0,0,1,1.37,1.37V237a0,0,0,0,1,0,0h-2.73a0,0,0,0,1,0,0v-8.62A1.37,1.37,0,0,1,356.71,227Z" transform="translate(1.23 -1.88) rotate(0.3)"/><path class="cls-30" d="M360.12,230.89h0a.84.84,0,0,1,.84.84V237a0,0,0,0,1,0,0h-1.68a0,0,0,0,1,0,0v-5.3A.84.84,0,0,1,360.12,230.89Z" transform="matrix(1, 0.01, -0.01, 1, 1.24, -1.9)"/><path class="cls-31" d="M358,231.72h0a.72.72,0,0,1,.72.72V237a0,0,0,0,1,0,0h-1.45a0,0,0,0,1,0,0v-4.57A.72.72,0,0,1,358,231.72Z" transform="matrix(1, 0.01, -0.01, 1, 1.24, -1.89)"/><path class="cls-31" d="M353.17,231.7h0a.72.72,0,0,1,.72.72V237a0,0,0,0,1,0,0h-1.45a0,0,0,0,1,0,0v-4.57A.72.72,0,0,1,353.17,231.7Z" transform="translate(1.24 -1.86) rotate(0.3)"/><rect class="cls-22" x="223.54" y="75.57" width="24.29" height="170.4"/><rect class="cls-23" x="247.66" y="75.58" width="27.12" height="170.39" transform="translate(522.44 321.54) rotate(-180)"/><g class="cls-40"><rect class="cls-15" x="262.68" y="122.77" width="6.78" height="30.49"/><rect class="cls-15" x="252.89" y="122.77" width="6.78" height="30.49"/></g><path class="cls-1" d="M104.18,128.19h-1.43a8.26,8.26,0,0,0-11.81-5.74,13.44,13.44,0,0,0-19.6-3.17,17.24,17.24,0,0,0-30.8,8.91h-.19A2.84,2.84,0,0,0,37.51,131h0a2.84,2.84,0,0,0,2.84,2.83h63.83A2.84,2.84,0,0,0,107,131h0A2.84,2.84,0,0,0,104.18,128.19Z"/><circle class="cls-1" cx="73.95" cy="110.69" r="2.99"/><circle class="cls-1" cx="93.33" cy="114.64" r="2.36"/><rect class="cls-22" x="177.09" y="37.14" width="31.54" height="0.19"/><rect class="cls-22" x="177.09" y="43.17" width="31.54" height="202.79"/><rect class="cls-23" x="208.63" y="40.22" width="31.54" height="205.75" transform="translate(448.8 286.18) rotate(-180)"/><rect class="cls-41" x="208.63" y="40.22" width="31.54" height="5.43" transform="translate(448.8 85.86) rotate(-180)"/><rect class="cls-15" x="230.04" y="50.29" width="6.25" height="6.4"/><rect class="cls-15" x="221.77" y="50.29" width="6.25" height="6.4"/><rect class="cls-15" x="213.51" y="50.29" width="6.25" height="6.4"/><rect class="cls-15" x="230.04" y="60.45" width="6.25" height="6.4"/><rect class="cls-15" x="221.77" y="60.45" width="6.25" height="6.4"/><rect class="cls-15" x="213.51" y="60.45" width="6.25" height="6.4"/><rect class="cls-15" x="230.04" y="70.62" width="6.25" height="6.4"/><rect class="cls-15" x="221.77" y="70.62" width="6.25" height="6.4"/><rect class="cls-15" x="213.51" y="70.62" width="6.25" height="6.4"/><rect class="cls-15" x="230.04" y="80.78" width="6.25" height="6.4"/><rect class="cls-15" x="221.77" y="80.78" width="6.25" height="6.4"/><rect class="cls-15" x="213.51" y="80.78" width="6.25" height="6.4"/><rect class="cls-15" x="230.04" y="90.95" width="6.25" height="6.4"/><rect class="cls-15" x="221.77" y="90.95" width="6.25" height="6.4"/><rect class="cls-15" x="213.51" y="90.95" width="6.25" height="6.4"/><rect class="cls-15" x="230.04" y="101.11" width="6.25" height="6.4"/><rect class="cls-15" x="221.77" y="101.11" width="6.25" height="6.4"/><rect class="cls-15" x="213.51" y="101.11" width="6.25" height="6.4"/><rect class="cls-15" x="230.04" y="131.6" width="6.25" height="6.4"/><rect class="cls-15" x="221.77" y="131.6" width="6.25" height="6.4"/><rect class="cls-15" x="213.51" y="131.6" width="6.25" height="6.4"/><rect class="cls-15" x="230.04" y="121.44" width="6.25" height="6.4"/><rect class="cls-15" x="221.77" y="121.44" width="6.25" height="6.4"/><rect class="cls-15" x="213.51" y="121.44" width="6.25" height="6.4"/><rect class="cls-15" x="230.04" y="111.27" width="6.25" height="6.4"/><rect class="cls-15" x="221.77" y="111.27" width="6.25" height="6.4"/><rect class="cls-15" x="213.51" y="111.27" width="6.25" height="6.4"/><g class="cls-42"><rect class="cls-15" x="198.05" y="50.29" width="6.25" height="6.4"/><rect class="cls-15" x="189.79" y="50.29" width="6.25" height="6.4"/><rect class="cls-15" x="181.52" y="50.29" width="6.25" height="6.4"/><rect class="cls-15" x="198.05" y="60.45" width="6.25" height="6.4"/><rect class="cls-15" x="189.79" y="60.45" width="6.25" height="6.4"/><rect class="cls-15" x="181.52" y="60.45" width="6.25" height="6.4"/><rect class="cls-15" x="198.05" y="70.62" width="6.25" height="6.4"/><rect class="cls-15" x="189.79" y="70.62" width="6.25" height="6.4"/><rect class="cls-15" x="181.52" y="70.62" width="6.25" height="6.4"/><rect class="cls-15" x="198.05" y="80.78" width="6.25" height="6.4"/><rect class="cls-15" x="189.79" y="80.78" width="6.25" height="6.4"/><rect class="cls-15" x="181.52" y="80.78" width="6.25" height="6.4"/><rect class="cls-15" x="198.05" y="90.95" width="6.25" height="6.4"/><rect class="cls-15" x="189.79" y="90.95" width="6.25" height="6.4"/><rect class="cls-15" x="181.52" y="90.95" width="6.25" height="6.4"/><rect class="cls-15" x="198.05" y="101.11" width="6.25" height="6.4"/><rect class="cls-15" x="189.79" y="101.11" width="6.25" height="6.4"/><rect class="cls-15" x="181.52" y="101.11" width="6.25" height="6.4"/><rect class="cls-15" x="198.05" y="131.6" width="6.25" height="6.4"/><rect class="cls-15" x="189.79" y="131.6" width="6.25" height="6.4"/><rect class="cls-15" x="181.52" y="131.6" width="6.25" height="6.4"/><rect class="cls-15" x="198.05" y="121.44" width="6.25" height="6.4"/><rect class="cls-15" x="189.79" y="121.44" width="6.25" height="6.4"/><rect class="cls-15" x="181.52" y="121.44" width="6.25" height="6.4"/><rect class="cls-15" x="198.05" y="111.27" width="6.25" height="6.4"/><rect class="cls-15" x="189.79" y="111.27" width="6.25" height="6.4"/><rect class="cls-15" x="181.52" y="111.27" width="6.25" height="6.4"/></g><rect class="cls-43" x="174.94" y="31.31" width="33.69" height="5.83"/><polygon class="cls-22" points="242.33 31.31 242.33 37.33 174.94 37.33 174.94 37.14 208.63 37.14 208.63 31.31 242.33 31.31"/><polygon class="cls-44" points="208.63 37.33 208.63 43.17 171.73 43.17 171.73 37.14 174.94 37.14 174.94 37.33 208.63 37.33"/><polygon class="cls-28" points="245.53 37.14 245.53 43.17 208.63 43.17 208.63 37.33 174.94 37.33 174.94 37.14 245.53 37.14"/><polygon class="cls-45" points="317.11 140.51 269.39 140.51 242.81 170.73 290.13 170.73 317.11 140.51"/><polyline class="cls-45" points="310.78 140.51 248.15 140.51 221.57 171.15 283.81 171.15"/><path class="cls-1" d="M333.6,98.15h-1.19a6.8,6.8,0,0,0-6.67-5.45,6.91,6.91,0,0,0-3,.72,11.06,11.06,0,0,0-16.12-2.61,14.19,14.19,0,0,0-25.34,7.34h-.16a2.33,2.33,0,0,0-2.34,2.33h0a2.34,2.34,0,0,0,2.34,2.34H333.6a2.33,2.33,0,0,0,2.33-2.34h0A2.33,2.33,0,0,0,333.6,98.15Z"/><circle class="cls-1" cx="334.93" cy="88.7" r="1.69"/><circle class="cls-1" cx="345.66" cy="119.95" r="3.58"/><circle class="cls-1" cx="323.82" cy="84.56" r="2.82"/><path class="cls-46" d="M25.73,192.48c1.36,9.62,4.36,14.28,6.55,16.47v-.64a4.12,4.12,0,0,1,4.09-4.17.13.13,0,0,0,.12-.14l-.11-11.37,4,0L40.49,204a4.14,4.14,0,0,1-4.08,4.18.13.13,0,0,0-.13.13l.13,13.06a.13.13,0,0,0,.13.13l4.26,0A4.13,4.13,0,0,1,45,225.51l.11,11.18-4,0L41,225.55a.13.13,0,0,0-.13-.13l-4.26,0a4.12,4.12,0,0,1-4.17-4.09L32.33,214a14.08,14.08,0,0,1-3.88-3.28c-3.33-3.95-5.58-9.9-6.68-17.69Z"/><path class="cls-30" d="M10.39,168.55a3.86,3.86,0,0,1-3.89-3.81l-.07-7.59a3.85,3.85,0,0,1,3.81-3.89l20.51-.2a15.26,15.26,0,0,1,12,5.64A16.92,16.92,0,0,0,56,165.18h.58A2.8,2.8,0,0,1,59.39,168l0,5.2.06,5.75v1l.05,4.86.06,6.1a2.8,2.8,0,0,1-2.77,2.83l-41.25.41a2.79,2.79,0,0,1-2.83-2.77v-.21a2.92,2.92,0,0,0-2.95-2.89h0a3,3,0,0,1-3-2.94L6.7,173.67a3,3,0,0,1,3-3l1.86,0a1,1,0,0,0,1-1.06h0a1,1,0,0,0-1.07-1.05Z"/><path class="cls-37" d="M20.59,168.45a3.85,3.85,0,0,1-3.89-3.81l-.08-7.59a3.85,3.85,0,0,1,3.81-3.89L41,153a15.2,15.2,0,0,1,12,5.64c3.28,4,4,6.57,9.23,6.52h.58a2.81,2.81,0,0,1,2.83,2.77l0,5.2.06,5.76v1l0,4.86.07,6.1A2.81,2.81,0,0,1,63,193.63L25.79,194A2.81,2.81,0,0,1,23,191.23V191A2.91,2.91,0,0,0,20,188.13h0a3,3,0,0,1-3-2.94l-.12-11.62a3,3,0,0,1,2.94-3l1.86,0a1.06,1.06,0,0,0,1.05-1.07h0a1.06,1.06,0,0,0-1.07-1Z"/><circle class="cls-32" cx="22.84" cy="185.32" r="1.91"/><circle class="cls-32" cx="31.82" cy="179.28" r="0.52"/><circle class="cls-32" cx="43.95" cy="180.93" r="0.66"/><circle class="cls-32" cx="48.74" cy="186.77" r="1.05"/><circle class="cls-32" cx="33.25" cy="186.22" r="1.1"/><circle class="cls-32" cx="13.19" cy="173.85" r="1.01"/><path class="cls-32" d="M26.38,154.1a1,1,0,0,1,0-2L40.94,152h0a1,1,0,0,1,0,2l-14.57.14Z"/><polygon class="cls-36" points="33.34 218.01 33.29 213.71 33.54 213.71 33.59 218.01 33.34 218.01"/><polygon class="cls-36" points="41.91 228.74 41.87 224.43 42.12 224.43 42.16 228.74 41.91 228.74"/><polygon class="cls-36" points="34.45 211.65 34.41 207.34 34.66 207.34 34.7 211.65 34.45 211.65"/><polygon class="cls-36" points="38.73 200.28 38.69 195.97 38.94 195.97 38.98 200.27 38.73 200.28"/><polygon class="cls-36" points="34.92 214.55 34.9 212.72 35.15 212.71 35.17 214.55 34.92 214.55"/><polygon class="cls-36" points="34.44 220.01 34.4 215.71 34.65 215.71 34.69 220.01 34.44 220.01"/><polygon class="cls-36" points="38.02 200.28 38.01 198.45 38.26 198.45 38.27 200.28 38.02 200.28"/><polygon class="cls-36" points="37.55 205.75 37.51 201.44 37.76 201.44 37.8 205.75 37.55 205.75"/><polygon class="cls-36" points="43.91 228.72 43.89 226.88 44.14 226.88 44.16 228.72 43.91 228.72"/><polygon class="cls-36" points="43.43 234.18 43.39 229.88 43.64 229.88 43.68 234.18 43.43 234.18"/><rect class="cls-36" x="36.4" y="193.87" width="4" height="2.1" transform="translate(78.75 389.45) rotate(179.43)"/><path class="cls-30" d="M21,202.55c-1.66,1.89-1,5.23-1,5.23s3.4.29,5.07-1.6,1-5.23,1-5.23S22.64,200.67,21,202.55Z"/><path class="cls-37" d="M41.17,199c-1.67,1.88-1,5.23-1,5.23s3.41.28,5.08-1.6,1-5.23,1-5.23S42.84,197.06,41.17,199Z"/><path class="cls-30" d="M.78,196.21C-.39,197.54.1,199.9.1,199.9s2.41.2,3.58-1.13.68-3.69.68-3.69S2,194.88.78,196.21Z"/><path class="cls-37" d="M7.52,204.48c.92,1.52,3.31,1.76,3.31,1.76s.92-2.23,0-3.75-3.31-1.76-3.31-1.76S6.61,203,7.52,204.48Z"/><path class="cls-37" d="M13,222.8c.91,1.52,3.31,1.76,3.31,1.76s.92-2.23,0-3.75S13,219.05,13,219.05,12.11,221.28,13,222.8Z"/><path class="cls-37" d="M3.08,224.08c.91,1.52,3.31,1.76,3.31,1.76s.92-2.23,0-3.75-3.31-1.76-3.31-1.76S2.16,222.56,3.08,224.08Z"/><path class="cls-32" d="M13.81,215.77c1.62.73,3.72-.45,3.72-.45S17,213,15.39,212.24s-3.72.45-3.72.45S12.19,215,13.81,215.77Z"/><path class="cls-32" d="M19.27,228.57c1.62.73,3.73-.45,3.73-.45s-.52-2.35-2.14-3.08-3.73.45-3.73.45S17.65,227.84,19.27,228.57Z"/><rect class="cls-47" x="251.78" y="170.65" width="38.16" height="69.96"/><polygon class="cls-48" points="274.51 237.44 198.27 237.44 198.27 185.26 236.67 142.91 274.51 185.26 274.51 237.44"/><rect class="cls-3" x="198.27" y="231.29" width="76.24" height="6.15"/><polygon class="cls-49" points="223.12 237.44 146.88 237.44 146.88 185.26 185.28 142.91 223.12 185.26 223.12 237.44"/><polygon class="cls-48" points="337.12 237.81 289.74 237.81 289.74 170.5 315.64 142.42 337.12 170.5 337.12 237.81"/><rect class="cls-12" x="228.05" y="199.21" width="10.64" height="2.62" rx="1.31"/><rect class="cls-12" x="150.6" y="230.82" width="10.64" height="2.62" rx="1.31"/><rect class="cls-12" x="298.55" y="175.48" width="10.64" height="2.62" rx="1.31"/><rect class="cls-12" x="321.7" y="179.44" width="10.64" height="2.62" rx="1.31"/><rect class="cls-12" x="227.15" y="230.25" width="10.64" height="2.62" rx="1.31"/><rect class="cls-12" x="204.43" y="209.37" width="10.64" height="2.62" rx="1.31"/><rect class="cls-12" x="157.94" y="227.44" width="10.64" height="2.62" rx="1.31"/><rect class="cls-12" x="152.29" y="221.22" width="10.64" height="2.62" rx="1.31"/><rect class="cls-12" x="151.38" y="193.37" width="10.64" height="2.62" rx="1.31"/><rect class="cls-12" x="199.67" y="232.15" width="10.64" height="2.62" rx="1.31"/><rect class="cls-12" x="297.17" y="226.86" width="10.64" height="2.62" rx="1.31"/><g class="cls-50"><rect class="cls-12" x="262.28" y="216.35" width="7.59" height="1.87" rx="0.93" transform="translate(532.15 434.57) rotate(-180)"/><rect class="cls-12" x="259.03" y="218.22" width="7.59" height="1.87" rx="0.93" transform="translate(525.66 438.3) rotate(-180)"/><rect class="cls-12" x="262.28" y="220.09" width="7.59" height="1.87" rx="0.93" transform="translate(532.15 442.04) rotate(-180)"/></g><g class="cls-51"><rect class="cls-12" x="325.2" y="226.9" width="7.59" height="1.87" rx="0.93" transform="translate(658 455.67) rotate(180)"/><rect class="cls-12" x="321.96" y="228.77" width="7.59" height="1.87" rx="0.93" transform="translate(651.51 459.4) rotate(180)"/><rect class="cls-12" x="325.2" y="230.63" width="7.59" height="1.87" rx="0.93" transform="translate(658 463.14) rotate(-180)"/></g><rect class="cls-15" x="318.49" y="186.2" width="14.34" height="22.35"/><rect class="cls-52" x="319.89" y="187.67" width="11.53" height="19.38"/><rect class="cls-15" x="297.22" y="186.2" width="14.34" height="22.35"/><rect class="cls-52" x="298.63" y="187.67" width="11.53" height="19.38"/><rect class="cls-53" x="298.59" y="187.67" width="2.11" height="19.38" transform="translate(599.3 394.73) rotate(-180)"/><rect class="cls-53" x="319.86" y="187.67" width="2.11" height="19.38" transform="translate(641.82 394.73) rotate(-180)"/><rect class="cls-30" x="1" y="247.13" width="454.72" height="13.91" rx="6.96"/><path class="cls-37" d="M447,237a8.3,8.3,0,0,1,8.3,8.3h0a8.31,8.31,0,0,1-8.3,8.3H8.92a8.31,8.31,0,0,1-8.3-8.3h0a8.3,8.3,0,0,1,8.3-8.3"/><rect class="cls-37" x="310.52" y="251.48" width="19.07" height="3.47" rx="1.73"/><rect class="cls-32" x="130.78" y="240.3" width="13.68" height="2.49" rx="1.24"/><circle class="cls-32" cx="422.28" cy="253.69" r="0.53"/><circle class="cls-32" cx="423.74" cy="248.78" r="0.6"/><circle class="cls-32" cx="419.62" cy="240.14" r="0.6"/><circle class="cls-32" cx="419.45" cy="247.08" r="0.9"/><circle class="cls-32" cx="421.51" cy="250.2" r="0.56"/><circle class="cls-32" cx="423.47" cy="251.96" r="0.4"/><circle class="cls-32" cx="425.07" cy="253.16" r="0.47"/><rect class="cls-30" x="392.59" y="251.48" width="19.07" height="3.47" rx="1.73"/><rect class="cls-30" x="23.92" y="251.48" width="19.07" height="3.47" rx="1.73"/><rect class="cls-30" x="87.05" y="251.48" width="19.07" height="3.47" rx="1.73"/><rect class="cls-30" x="425.72" y="251.86" width="19.07" height="3.47" rx="1.73"/><polygon class="cls-7" points="185.28 142.91 237.67 142.91 275.51 185.26 223.15 185.26 185.28 142.91"/><path class="cls-54" d="M188.26,193.28a6.75,6.75,0,0,1-1.69.22,6.64,6.64,0,1,1,0-13.27,6.75,6.75,0,0,1,1.69.22,6.64,6.64,0,0,0,0,12.83Z"/><path class="cls-52" d="M193.2,186.86a6.65,6.65,0,0,1-4.94,6.42,6.64,6.64,0,0,1,0-12.83A6.63,6.63,0,0,1,193.2,186.86Z"/><path class="cls-12" d="M338.13,174.59a2.52,2.52,0,0,1-2-1l-22-27.67a2.5,2.5,0,0,1,3.91-3.11l22,27.67a2.51,2.51,0,0,1-2,4.06Z"/><path class="cls-12" d="M150.69,190.73a2.5,2.5,0,0,1-1.81-4.22l36.7-39a2.5,2.5,0,1,1,3.64,3.43l-36.7,39A2.53,2.53,0,0,1,150.69,190.73Z"/><path class="cls-12" d="M224,195.25a2.5,2.5,0,0,1-1.85-.82L182.31,151a2.5,2.5,0,0,1,3.69-3.38l39.81,43.49a2.51,2.51,0,0,1-1.84,4.19Z"/><rect class="cls-8" x="234.82" y="117.09" width="13.62" height="43.14"/><polygon class="cls-9" points="234.81 160.23 226.56 150.99 226.53 117.09 234.81 117.09 234.81 160.23"/><path class="cls-12" d="M220.28,185.27h54.59a0,0,0,0,1,0,0v8.19a0,0,0,0,1,0,0H228.22a7.94,7.94,0,0,1-7.94-7.94v-.25A0,0,0,0,1,220.28,185.27Z"/><path class="cls-10" d="M224.81,189.1a2.48,2.48,0,0,1-1.84-.81l-36.72-40.16L149,188.3a2.5,2.5,0,0,1-3.67-3.4l39.13-42.16a2.5,2.5,0,0,1,1.83-.8h0a2.52,2.52,0,0,1,1.84.82l38.55,42.15a2.51,2.51,0,0,1-1.85,4.19Z"/><rect class="cls-9" x="235.92" y="153.92" width="7.53" height="2.45" rx="1.22"/><rect class="cls-9" x="241.19" y="150.35" width="4.96" height="1.61" rx="0.81"/><rect class="cls-9" x="236.66" y="123.23" width="4.96" height="1.61" rx="0.81"/><rect class="cls-11" x="227.62" y="129.16" width="4.96" height="1.61" rx="0.81"/><rect class="cls-11" x="227.32" y="147.15" width="4.96" height="1.61" rx="0.81"/><rect class="cls-7" x="222.84" y="115.58" width="29.9" height="3.37" rx="1.69"/><g class="cls-55"><rect class="cls-56" x="276.23" y="162.86" width="7.7" height="2.13" rx="1.06"/><rect class="cls-56" x="249.13" y="145.17" width="7.7" height="2.13" rx="1.06"/><rect class="cls-56" x="288.09" y="148.56" width="7.7" height="2.13" rx="1.06"/><rect class="cls-56" x="271.34" y="158.72" width="7.7" height="2.13" rx="1.06"/><rect class="cls-56" x="292.8" y="144.6" width="7.7" height="2.13" rx="1.06"/></g><path class="cls-10" d="M276.53,190H222.12a2.5,2.5,0,0,1,0-5h54.41a2.5,2.5,0,0,1,0,5Z"/><path class="cls-10" d="M338.81,172.08a1.67,1.67,0,0,1-1.33-.64l-21.85-27.37L292,171.49a1.69,1.69,0,0,1-2.4.18,1.71,1.71,0,0,1-.18-2.4l24.94-29a1.77,1.77,0,0,1,1.32-.59,1.69,1.69,0,0,1,1.3.64l23.13,29a1.7,1.7,0,0,1-.26,2.39A1.72,1.72,0,0,1,338.81,172.08Z"/><path class="cls-10" d="M293.21,172.28H262.08a1.7,1.7,0,1,1,0-3.4h31.13a1.7,1.7,0,1,1,0,3.4Z"/><rect class="cls-14" x="227.64" y="175.95" width="9.6" height="2.82" rx="1.41"/><rect class="cls-14" x="232.72" y="171.85" width="9.6" height="2.82" rx="1.41"/><rect class="cls-14" x="215.07" y="154.77" width="9.6" height="2.82" rx="1.41"/><rect class="cls-14" x="199.54" y="146.44" width="9.6" height="2.82" rx="1.41"/><rect class="cls-14" x="256.3" y="178.63" width="9.6" height="2.82" rx="1.41"/><rect class="cls-21" x="226.54" y="118.95" width="21.88" height="2.01"/><path class="cls-57" d="M98.4,197.32c-1.18,1.33-.68,3.69-.68,3.69s2.4.2,3.57-1.13.69-3.69.69-3.69S99.57,196,98.4,197.32Z"/><path class="cls-58" d="M105.14,205.58c.91,1.53,3.31,1.77,3.31,1.77s.92-2.23,0-3.75-3.31-1.77-3.31-1.77S104.22,204.06,105.14,205.58Z"/><path class="cls-58" d="M110.63,223.91c.92,1.52,3.32,1.76,3.32,1.76s.91-2.23,0-3.75-3.31-1.77-3.31-1.77S109.72,222.38,110.63,223.91Z"/><path class="cls-58" d="M100.69,225.19C101.6,226.71,104,227,104,227s.92-2.23,0-3.75-3.32-1.77-3.32-1.77S99.78,223.66,100.69,225.19Z"/><path class="cls-59" d="M111.42,216.88c1.62.72,3.73-.45,3.73-.45s-.52-2.35-2.14-3.08-3.73.44-3.73.44S109.8,216.15,111.42,216.88Z"/><path class="cls-59" d="M116.89,229.68c1.62.72,3.72-.45,3.72-.45s-.52-2.35-2.14-3.08-3.72.44-3.72.44S115.27,229,116.89,229.68Z"/><rect class="cls-15" x="262.68" y="86.82" width="6.78" height="30.49"/><rect class="cls-15" x="252.89" y="86.82" width="6.78" height="30.49"/><path class="cls-15" d="M265.1,57.46h-.38a1.06,1.06,0,0,0-.58.13,1.36,1.36,0,0,0-.79.79,1.06,1.06,0,0,0-.13.58l0,.4a1.49,1.49,0,0,0,.39.66l.3.23a1.48,1.48,0,0,0,.76.21h.38a1.14,1.14,0,0,0,.57-.13,1.21,1.21,0,0,0,.49-.31,1.24,1.24,0,0,0,.31-.48,1.29,1.29,0,0,0,.13-.58l-.06-.4a1.45,1.45,0,0,0-.38-.66l-.31-.24a1.5,1.5,0,0,0-.75-.2Z"/><path class="cls-46" d="M126.19,193.58c-1.36,9.63-4.36,14.28-6.55,16.48v-.65a4.14,4.14,0,0,0-4.09-4.17.13.13,0,0,1-.13-.13l.11-11.37-4,0-.11,11.37a4.13,4.13,0,0,0,4.09,4.17.13.13,0,0,1,.13.13l-.13,13.07a.13.13,0,0,1-.13.13l-4.26,0a4.14,4.14,0,0,0-4.18,4.09l-.11,11.17,4,0,.11-11.17a.13.13,0,0,1,.14-.13l4.26,0a4.14,4.14,0,0,0,4.17-4.09l.07-7.37a13.7,13.7,0,0,0,3.88-3.29c3.34-3.94,5.58-9.89,6.68-17.68Z"/><polygon class="cls-36" points="118.59 219.12 118.34 219.12 118.38 214.81 118.63 214.81 118.59 219.12"/><polygon class="cls-36" points="110.02 229.85 109.77 229.84 109.81 225.54 110.06 225.54 110.02 229.85"/><polygon class="cls-36" points="108.02 229.83 107.77 229.83 107.79 227.99 108.04 227.99 108.02 229.83"/><polygon class="cls-36" points="108.49 235.29 108.24 235.29 108.29 230.98 108.54 230.99 108.49 235.29"/><rect class="cls-60" x="102.89" y="157.17" width="34.73" height="60.14" rx="17.36"/><path class="cls-61" d="M119.69,217.17a1,1,0,0,1-1-1V174.1a1,1,0,1,1,2,0v42.07A1,1,0,0,1,119.69,217.17Z"/><path class="cls-61" d="M119.83,189.78a1,1,0,0,1-.3-1.95l6.78-2.12a1,1,0,0,1,1.25.65,1,1,0,0,1-.66,1.26l-6.77,2.11A.79.79,0,0,1,119.83,189.78Z"/><path class="cls-61" d="M119.4,199.24a.74.74,0,0,1-.29-.05l-6.78-2.11a1,1,0,1,1,.6-1.91l6.77,2.12a1,1,0,0,1-.3,2Z"/><path class="cls-58" d="M131,203.66c1.67,1.88,1,5.23,1,5.23s-3.41.29-5.08-1.6-1-5.23-1-5.23S129.28,201.77,131,203.66Z"/><path class="cls-58" d="M110.76,200.05c1.66,1.89,1,5.23,1,5.23s-3.4.29-5.07-1.6-1-5.23-1-5.23S109.09,198.17,110.76,200.05Z"/><path class="cls-59" d="M134.65,174.36h0a1,1,0,0,1-1-1c.07-5.45-4.47-11.06-9.72-12a1,1,0,1,1,.35-2c6.14,1.09,11.45,7.63,11.37,14A1,1,0,0,1,134.65,174.36Z"/><path class="cls-62" d="M133.53,169.26a1,1,0,0,1-.91-.59,13.83,13.83,0,0,0-3.58-4.79,1,1,0,0,1,1.3-1.52,15.74,15.74,0,0,1,4.11,5.49,1,1,0,0,1-.51,1.32A1,1,0,0,1,133.53,169.26Z"/><path class="cls-59" d="M117.75,161.31a1,1,0,0,1-1-.71,1,1,0,0,1,.67-1.25,7.26,7.26,0,0,1,3.53-.15,1,1,0,0,1-.51,1.94,5.17,5.17,0,0,0-2.45.13A1,1,0,0,1,117.75,161.31Z"/><path class="cls-59" d="M134.65,193.55a1,1,0,0,1-1-1V177.21a1,1,0,0,1,2,0v15.34A1,1,0,0,1,134.65,193.55Z"/><path class="cls-62" d="M134.65,187.64a1,1,0,0,1-1-1v-4.33a1,1,0,0,1,2,0v4.33A1,1,0,0,1,134.65,187.64Z"/><path class="cls-57" d="M417.06,201.54c-1.17,1.33-.68,3.69-.68,3.69s2.4.2,3.58-1.13.68-3.68.68-3.68S418.24,200.21,417.06,201.54Z"/><path class="cls-58" d="M423.8,209.81c.91,1.52,3.31,1.76,3.31,1.76s.92-2.23,0-3.75-3.31-1.76-3.31-1.76S422.89,208.29,423.8,209.81Z"/><path class="cls-58" d="M429.3,228.13c.91,1.52,3.31,1.76,3.31,1.76s.92-2.22,0-3.75-3.32-1.76-3.32-1.76S428.39,226.61,429.3,228.13Z"/><path class="cls-58" d="M419.35,229.41c.92,1.53,3.32,1.77,3.32,1.77s.91-2.23,0-3.76-3.31-1.76-3.31-1.76S418.44,227.89,419.35,229.41Z"/><path class="cls-59" d="M430.09,221.1c1.62.73,3.72-.44,3.72-.44s-.52-2.36-2.14-3.08S428,218,428,218,428.47,220.37,430.09,221.1Z"/><path class="cls-59" d="M435.55,233.9c1.62.73,3.73-.44,3.73-.44s-.52-2.36-2.14-3.08-3.73.44-3.73.44S433.93,233.17,435.55,233.9Z"/><path class="cls-46" d="M444.85,197.81c-1.35,9.62-4.35,14.28-6.54,16.47v-.64a4.12,4.12,0,0,0-4.09-4.17.13.13,0,0,1-.13-.13l.12-11.38-4,0-.12,11.38a4.14,4.14,0,0,0,4.09,4.17.13.13,0,0,1,.13.13l-.13,13.07a.13.13,0,0,1-.13.13l-4.26-.05a4.14,4.14,0,0,0-4.17,4.09L425.51,242l4,0,.11-11.18a.13.13,0,0,1,.13-.13l4.26.05a4.14,4.14,0,0,0,4.17-4.09l.08-7.37a14.16,14.16,0,0,0,3.88-3.29c3.33-4,5.58-9.9,6.67-17.68Z"/><polygon class="cls-36" points="437.25 223.35 437 223.34 437.05 219.04 437.3 219.04 437.25 223.35"/><polygon class="cls-36" points="428.68 234.07 428.43 234.07 428.47 229.77 428.72 229.77 428.68 234.07"/><polygon class="cls-36" points="426.68 234.05 426.43 234.05 426.45 232.22 426.7 232.22 426.68 234.05"/><polygon class="cls-36" points="427.16 239.52 426.91 239.51 426.95 235.21 427.2 235.21 427.16 239.52"/><rect class="cls-60" x="421.55" y="161.4" width="34.73" height="60.14" rx="17.36"/><path class="cls-61" d="M438.35,221.39a1,1,0,0,1-1-1V178.32a1,1,0,0,1,2,0v42.07A1,1,0,0,1,438.35,221.39Z"/><path class="cls-61" d="M438.49,194a1,1,0,0,1-.3-2l6.78-2.11a1,1,0,1,1,.6,1.9L438.79,194A1,1,0,0,1,438.49,194Z"/><path class="cls-61" d="M438.07,203.47a1,1,0,0,1-.3-.05L431,201.3a1,1,0,0,1,.6-1.91l6.78,2.12a1,1,0,0,1-.3,2Z"/><path class="cls-58" d="M449.62,207.89c1.66,1.88,1,5.23,1,5.23s-3.4.28-5.07-1.6-1-5.23-1-5.23S448,206,449.62,207.89Z"/><path class="cls-58" d="M429.42,204.28c1.67,1.88,1,5.23,1,5.23s-3.41.29-5.08-1.6-1-5.23-1-5.23S427.75,202.39,429.42,204.28Z"/><path class="cls-59" d="M453.31,178.59h0a1,1,0,0,1-1-1c.08-5.46-4.46-11.06-9.71-12a1,1,0,0,1-.81-1.16,1,1,0,0,1,1.16-.81c6.14,1.09,11.45,7.63,11.36,14A1,1,0,0,1,453.31,178.59Z"/><path class="cls-62" d="M452.2,173.48a1,1,0,0,1-.91-.59,13.7,13.7,0,0,0-3.59-4.78,1,1,0,1,1,1.3-1.52,15.65,15.65,0,0,1,4.11,5.49,1,1,0,0,1-.5,1.32A1,1,0,0,1,452.2,173.48Z"/><path class="cls-59" d="M436.42,165.54a1,1,0,0,1-.28-2,6.94,6.94,0,0,1,3.52-.15,1,1,0,0,1-.51,1.93,5.09,5.09,0,0,0-2.45.14A.9.9,0,0,1,436.42,165.54Z"/><path class="cls-59" d="M453.31,197.78a1,1,0,0,1-1-1V181.44a1,1,0,0,1,2,0v15.34A1,1,0,0,1,453.31,197.78Z"/><path class="cls-62" d="M453.31,191.86a1,1,0,0,1-1-1v-4.33a1,1,0,0,1,2,0v4.33A1,1,0,0,1,453.31,191.86Z"/><rect class="cls-15" x="267.27" y="197.27" width="2.64" height="13.93" rx="1.32"/><rect class="cls-15" x="335.31" y="212.88" width="2.07" height="10.94" rx="1.03"/><rect class="cls-15" x="335.31" y="197.64" width="2.07" height="10.94" rx="1.03"/><rect class="cls-63" x="335.31" y="204.98" width="2.07" height="10.94" rx="1.03"/><rect class="cls-63" x="335.31" y="183.91" width="2.07" height="10.94" rx="1.03"/><rect class="cls-47" x="296.44" y="209.6" width="17.44" height="1.88"/><rect class="cls-8" x="296.44" y="208.38" width="17.44" height="1.88"/><rect class="cls-64" x="296.44" y="209.37" width="17.44" height="0.89"/><rect class="cls-47" x="316.82" y="209.6" width="17.44" height="1.88"/><rect class="cls-8" x="316.82" y="208.38" width="17.44" height="1.88"/><rect class="cls-64" x="316.82" y="209.37" width="17.44" height="0.89"/><circle class="cls-33" cx="373.71" cy="188.89" r="2.35"/><circle class="cls-33" cx="379.29" cy="189.2" r="0.97"/><circle class="cls-33" cx="377.17" cy="191.94" r="0.56"/><circle class="cls-33" cx="377.38" cy="185.03" r="1.32"/><rect class="cls-23" x="287.39" y="172.27" width="4.24" height="64.64"/><path class="cls-65" d="M300,240.93h-5.57a5.94,5.94,0,0,1-5.93-5.93v-4.13h2V235a3.94,3.94,0,0,0,3.93,3.93H300Z"/><path class="cls-66" d="M288.26,220.14a.75.75,0,0,1-.75-.75v-5.95a.75.75,0,0,1,1.5,0v5.95A.76.76,0,0,1,288.26,220.14Z"/><path class="cls-67" d="M290.69,228.38a1,1,0,0,1-1-1v-4.94a1,1,0,0,1,2,0v4.94A1,1,0,0,1,290.69,228.38Z"/><path class="cls-66" d="M290.92,195.93a.76.76,0,0,1-.75-.75v-6a.75.75,0,1,1,1.5,0v6A.75.75,0,0,1,290.92,195.93Z"/><path class="cls-68" d="M288.26,186.39a.74.74,0,0,1-.75-.75V179.7a.75.75,0,0,1,1.5,0v5.94A.75.75,0,0,1,288.26,186.39Z"/><path class="cls-68" d="M288.26,206.3a.74.74,0,0,1-.75-.75v-5.94a.75.75,0,0,1,1.5,0v5.94A.75.75,0,0,1,288.26,206.3Z"/><circle class="cls-11" cx="228.58" cy="138.82" r="1.04"/><circle class="cls-11" cx="231.12" cy="144" r="0.38"/><path class="cls-16" d="M245.76,139.42a1,1,0,0,1-1-1V123.06a1,1,0,0,1,2,0v15.36A1,1,0,0,1,245.76,139.42Z"/><path class="cls-16" d="M245.76,147.27a1,1,0,0,1-1-1v-3.43a1,1,0,0,1,2,0v3.43A1,1,0,0,1,245.76,147.27Z"/><path class="cls-17" d="M245.76,135.07a1,1,0,0,1-1-1v-7.48a1,1,0,0,1,2,0v7.48A1,1,0,0,1,245.76,135.07Z"/><path class="cls-69" d="M272.63,100.92a1,1,0,0,1-1-1V84.56a1,1,0,0,1,2,0V99.92A1,1,0,0,1,272.63,100.92Z"/><path class="cls-69" d="M272.63,108.77a1,1,0,0,1-1-1v-3.44a1,1,0,1,1,2,0v3.44A1,1,0,0,1,272.63,108.77Z"/><path class="cls-15" d="M272.63,96.57a1,1,0,0,1-1-1V88.09a1,1,0,0,1,2,0v7.48A1,1,0,0,1,272.63,96.57Z"/><circle class="cls-9" cx="141.85" cy="49.18" r="2.5"/><circle class="cls-70" cx="140.84" cy="48.59" r="0.49"/><circle class="cls-71" cx="142.52" cy="47.81" r="0.49"/><rect class="cls-27" x="240.17" y="74.09" width="36.22" height="3.25"/><rect class="cls-22" x="124.33" y="74.09" width="37.15" height="1.62"/><rect class="cls-22" x="127.45" y="69.8" width="30.9" height="1.62"/><path class="cls-32" d="M286.42,242.55h-6.61a1,1,0,0,1,0-2h6.61a1,1,0,0,1,0,2Z"/><path class="cls-32" d="M275.51,242.55h-62a1,1,0,0,1,0-2h62a1,1,0,0,1,0,2Z"/><path class="cls-32" d="M208.63,242.55h-15a1,1,0,1,1,0-2h15a1,1,0,0,1,0,2Z"/><path class="cls-15" d="M189.2,242.55h-3.6a1,1,0,1,1,0-2h3.6a1,1,0,0,1,0,2Z"/><path class="cls-15" d="M245.76,242.55H227.15a1,1,0,0,1,0-2h18.61a1,1,0,0,1,0,2Z"/><path class="cls-32" d="M381.06,242.55h-62a1,1,0,0,1,0-2h62a1,1,0,0,1,0,2Z"/><path class="cls-32" d="M401,242.55h-15a1,1,0,0,1,0-2h15a1,1,0,0,1,0,2Z"/><path class="cls-15" d="M409,242.55h-3.6a1,1,0,0,1,0-2H409a1,1,0,0,1,0,2Z"/><path class="cls-15" d="M367.42,242.55H348.81a1,1,0,0,1,0-2h18.61a1,1,0,0,1,0,2Z"/></g></g></svg>