<svg xmlns="http://www.w3.org/2000/svg" viewBox="0 0 254.78 90.21"><defs><style>.cls-1{opacity:0.35;}.cls-2{fill:#a0e2f9;}.cls-3{fill:#d7e9e9;}.cls-4{fill:#37a9d1;}.cls-21,.cls-5,.cls-6{fill:#fff;}.cls-5{opacity:0.45;}.cls-7{fill:#1f033c;}.cls-8,.cls-9{fill:#9fd3d3;}.cls-8{opacity:0.4;}.cls-10{fill:#232144;}.cls-11{fill:#747484;}.cls-12{fill:#525266;}.cls-13{fill:#332d28;}.cls-14{fill:#6ff953;}.cls-15{fill:#f75454;}.cls-16{fill:#429dc1;}.cls-17{fill:#626363;}.cls-18{fill:#e0f3fc;}.cls-19{fill:#8bd2fc;}.cls-20{fill:#c0ecff;}.cls-21{opacity:0.65;}.cls-22{fill:#000201;}.cls-23{fill:#fff9de;}.cls-24{fill:#e2c19a;}.cls-25{fill:#ba946a;}.cls-26{fill:#d89a56;}.cls-27{fill:#f4ad5e;}.cls-28{fill:#ffc68d;}.cls-29{fill:#e28c37;}.cls-30{fill:#ffdcc0;}.cls-31{fill:#ff4500;}.cls-32{fill:#cc3000;}.cls-33{fill:#1b3c47;opacity:0.15;isolation:isolate;}.cls-34{fill:#9f9ec3;}.cls-35{fill:#ffe992;}.cls-36{fill:#fff6d3;}</style></defs><g id="Layer_2" data-name="Layer 2"><g id="Layer_1-2" data-name="Layer 1"><g class="cls-1"><rect class="cls-2" x="0.27" y="9.72" width="45.03" height="44.43"/><path class="cls-3" d="M.27,9.32v45h45v-45ZM42.49,51.81H3.69V12h38.8Z"/><rect class="cls-3" x="21.73" y="12.09" width="2.61" height="39.62"/><rect class="cls-3" x="21.88" y="13.25" width="2.61" height="38.76" transform="translate(55.82 9.44) rotate(90)"/><rect class="cls-4" x="3.48" y="49.53" width="39.04" height="2.08"/><rect class="cls-4" x="40.08" y="12.02" width="2.05" height="37.72"/><path class="cls-5" d="M5.78,22.49a.65.65,0,0,1-.65-.65V14.21a.66.66,0,0,1,.65-.66.67.67,0,0,1,.66.66v7.63A.66.66,0,0,1,5.78,22.49Z"/><path class="cls-5" d="M5.78,20.44a.66.66,0,0,1-.65-.66v-3a.66.66,0,0,1,.65-.66.67.67,0,0,1,.66.66v3A.67.67,0,0,1,5.78,20.44Z"/><rect class="cls-6" x="-3.96" y="24.24" width="28.17" height="0.76" transform="translate(-16.42 22.59) rotate(-63.27)"/><rect class="cls-6" x="-5.62" y="27.05" width="34.58" height="0.76" transform="translate(-18.06 25.34) rotate(-62.94)"/><path class="cls-7" d="M24.34,51.47a.27.27,0,0,1-.27-.27v-17a.27.27,0,0,1,.54,0v17A.27.27,0,0,1,24.34,51.47Z"/><path class="cls-7" d="M24.34,31.2a.27.27,0,0,1-.27-.27V12.36H22v7.86a.27.27,0,0,1-.54,0V12.09a.27.27,0,0,1,.27-.27h2.61a.27.27,0,0,1,.27.27V30.93A.27.27,0,0,1,24.34,31.2Z"/><path class="cls-7" d="M21.73,24.17a.27.27,0,0,1-.27-.27V22.74a.27.27,0,0,1,.54,0V23.9A.27.27,0,0,1,21.73,24.17Z"/><path class="cls-7" d="M21.73,31.16a.27.27,0,0,1-.27-.27V25.35a.27.27,0,0,1,.54,0v5.54A.27.27,0,0,1,21.73,31.16Z"/><path class="cls-7" d="M21.73,51.47a.27.27,0,0,1-.27-.27V34.4a.27.27,0,1,1,.54,0V51.2A.27.27,0,0,1,21.73,51.47Z"/><path class="cls-7" d="M42.05,31.59H14.57a.27.27,0,0,1,0-.54H42.05a.27.27,0,0,1,0,.54Z"/><path class="cls-7" d="M15.92,34.2H3.81a.27.27,0,0,1-.27-.27V31.32a.27.27,0,0,1,.27-.27h9a.27.27,0,0,1,0,.54H4.07v2.08H15.92a.27.27,0,1,1,0,.53Z"/><path class="cls-7" d="M42.05,34.2H18.19a.27.27,0,0,1,0-.53H42.05a.27.27,0,1,1,0,.53Z"/><rect class="cls-6" x="0.4" y="9.33" width="1.55" height="12.29" rx="0.77"/><rect class="cls-6" x="0.4" y="31.98" width="1.55" height="12.29" rx="0.77"/><rect class="cls-8" x="19.13" y="44.3" width="2.18" height="17.3" rx="1.09" transform="translate(73.17 32.73) rotate(90)"/><rect class="cls-9" x="27.45" y="44.3" width="2.18" height="17.3" rx="1.09" transform="translate(81.49 24.41) rotate(90)"/><path class="cls-7" d="M.27,46.69A.27.27,0,0,1,0,46.42V24.14a.27.27,0,0,1,.54,0V46.42A.27.27,0,0,1,.27,46.69Z"/><path class="cls-7" d="M5.66,54.43H.27A.27.27,0,0,1,0,54.16V48.89a.27.27,0,0,1,.54,0v5H5.66a.27.27,0,0,1,0,.54Z"/><path class="cls-7" d="M45.3,18.41a.27.27,0,0,1-.27-.27V9.4H21.1a.27.27,0,1,1,0-.54H45.3a.27.27,0,0,1,.27.27v9A.27.27,0,0,1,45.3,18.41Z"/><path class="cls-7" d="M19.26,9.4H12a.27.27,0,0,1,0-.54h7.26a.27.27,0,1,1,0,.54Z"/><path class="cls-7" d="M.27,22.52A.27.27,0,0,1,0,22.25V9.13a.27.27,0,0,1,.27-.27h9a.27.27,0,1,1,0,.54H.54V22.25A.27.27,0,0,1,.27,22.52Z"/><path class="cls-10" d="M7.53,15.61a.08.08,0,0,1-.07,0,.14.14,0,0,1-.06-.19l1.12-2a.15.15,0,0,1,.2-.05.14.14,0,0,1,0,.19l-1.12,2A.14.14,0,0,1,7.53,15.61Z"/><path class="cls-10" d="M7.83,16.69l-.07,0a.14.14,0,0,1,0-.19L8.58,15a.15.15,0,0,1,.2,0,.16.16,0,0,1,.05.19L8,16.62A.12.12,0,0,1,7.83,16.69Z"/><path class="cls-7" d="M42.49,51.89H3.69a.27.27,0,0,1-.27-.27V24.19a.27.27,0,0,1,.27-.27.28.28,0,0,1,.27.27V51.35H42.22V12.12H4V22.3a.28.28,0,0,1-.27.27.27.27,0,0,1-.27-.27V11.85a.27.27,0,0,1,.27-.27h38.8a.27.27,0,0,1,.27.27V51.62A.27.27,0,0,1,42.49,51.89Z"/><path class="cls-7" d="M45.3,54.43H9a.27.27,0,0,1,0-.54H45V21.24a.27.27,0,1,1,.54,0V54.16A.27.27,0,0,1,45.3,54.43Z"/></g><path class="cls-11" d="M33.49,26.53H79.32A1.73,1.73,0,0,1,81,28.25v53.2a2.18,2.18,0,0,1-2.18,2.18H33.49a0,0,0,0,1,0,0V26.53A0,0,0,0,1,33.49,26.53Z"/><path class="cls-12" d="M36.88,83.34H22.38V28.42a1.89,1.89,0,0,1,1.89-1.88H36.88"/><path class="cls-13" d="M36.88,82.84H28.46a40.93,40.93,0,0,1-4.29,0,1.31,1.31,0,0,1-1.28-1.11,28.61,28.61,0,0,1,0-4.72V29.08a5.44,5.44,0,0,1,0-1.21c.33-1.3,2.69-.83,3.57-.83h9.81a.51.51,0,0,0,0-1H27.11c-1.81,0-5.12-.66-5.24,2-.2,4.66,0,9.38,0,14,0,13.16-.15,26.33,0,39.49a2.13,2.13,0,0,0,1,2.11c1,.5,2.63.2,3.68.2H36.88a.51.51,0,0,0,0-1Z"/><path class="cls-13" d="M68.94,47.27h12a.51.51,0,0,0,0-1h-12a.51.51,0,0,0,0,1Z"/><circle class="cls-14" cx="46.13" cy="39.5" r="2.94"/><circle class="cls-14" cx="46.18" cy="39.45" r="2.94"/><path class="cls-13" d="M48.8,39.65A2.67,2.67,0,1,1,46.63,37a2.69,2.69,0,0,1,2.17,2.63.27.27,0,0,0,.54,0,3.26,3.26,0,0,0-2.08-3,3.2,3.2,0,1,0,2.08,3A.27.27,0,0,0,48.8,39.65Z"/><path class="cls-13" d="M73.45,36.44V43a.34.34,0,0,0,.68,0V36.44a.34.34,0,0,0-.68,0Z"/><path class="cls-13" d="M74.9,36.44V43a.35.35,0,0,0,.69,0V36.44a.35.35,0,0,0-.69,0Z"/><path class="cls-13" d="M76.36,36.44V43A.34.34,0,0,0,77,43V36.44a.34.34,0,0,0-.68,0Z"/><path class="cls-13" d="M72,37.56V43a.34.34,0,0,0,.68,0V37.56a.34.34,0,0,0-.68,0Z"/><path class="cls-13" d="M73.45,50.13v6.56a.34.34,0,0,0,.68,0V50.13a.34.34,0,0,0-.68,0Z"/><path class="cls-13" d="M74.9,50.13v6.56a.35.35,0,0,0,.69,0V50.13a.35.35,0,0,0-.69,0Z"/><path class="cls-13" d="M76.36,50.13v6.56a.34.34,0,0,0,.68,0V50.13a.34.34,0,0,0-.68,0Z"/><path class="cls-13" d="M72,51.25v5.44a.34.34,0,0,0,.68,0V51.25a.34.34,0,0,0-.68,0Z"/><path class="cls-13" d="M73.45,64.39V71a.34.34,0,0,0,.68,0V64.39a.34.34,0,0,0-.68,0Z"/><path class="cls-13" d="M74.9,64.39V71a.35.35,0,0,0,.69,0V64.39a.35.35,0,0,0-.69,0Z"/><path class="cls-13" d="M76.36,64.39V71A.34.34,0,0,0,77,71V64.39a.34.34,0,0,0-.68,0Z"/><path class="cls-13" d="M72,65.51V71a.34.34,0,0,0,.68,0V65.51a.34.34,0,0,0-.68,0Z"/><path class="cls-6" d="M45.91,37.84a2,2,0,0,1,2,2,.2.2,0,0,0,.4,0,2.45,2.45,0,0,0-.71-1.69,2.4,2.4,0,0,0-1.69-.7.2.2,0,0,0,0,.4Z"/><circle class="cls-14" cx="46.18" cy="53.8" r="2.94"/><path class="cls-6" d="M45.91,51.93a2,2,0,0,1,2,2,.2.2,0,0,0,.4,0,2.41,2.41,0,0,0-2.4-2.4.2.2,0,0,0,0,.4Z"/><path class="cls-12" d="M38.27,43.8V33.89l-.88.88H58.8a.88.88,0,0,0,0-1.76H37.39a.89.89,0,0,0-.88.88V43.8a.88.88,0,0,0,1.76,0Z"/><path class="cls-12" d="M38.27,57.45V47.54l-.88.88H58.8a.88.88,0,0,0,0-1.76H37.39a.89.89,0,0,0-.88.88v9.91a.88.88,0,0,0,1.76,0Z"/><path class="cls-12" d="M37.39,62.66H80.44a.88.88,0,0,0,0-1.76h-43a.88.88,0,0,0,0,1.76Z"/><path class="cls-12" d="M37.39,77.85H80.44a.88.88,0,0,0,0-1.76h-43a.88.88,0,0,0,0,1.76Z"/><path class="cls-13" d="M80.5,51.28V66.77a.51.51,0,0,0,1,0V51.28a.51.51,0,0,0-1,0Z"/><path class="cls-13" d="M36.82,33.44H47a.51.51,0,0,0,0-1H36.82a.51.51,0,0,0,0,1Z"/><path class="cls-13" d="M48.8,53.74a2.67,2.67,0,1,1-2.17-2.63,2.69,2.69,0,0,1,2.17,2.63.27.27,0,0,0,.54,0,3.27,3.27,0,0,0-2.08-3,3.2,3.2,0,1,0,2.08,3A.27.27,0,0,0,48.8,53.74Z"/><circle class="cls-14" cx="46.03" cy="67.56" r="2.94"/><path class="cls-6" d="M45.76,65.69a2,2,0,0,1,2,2,.2.2,0,1,0,.39,0,2.39,2.39,0,0,0-.7-1.69,2.42,2.42,0,0,0-1.69-.7.2.2,0,0,0,0,.4Z"/><path class="cls-13" d="M48.8,67.54a2.67,2.67,0,1,1-2.17-2.63,2.69,2.69,0,0,1,2.17,2.63.27.27,0,0,0,.54,0,3.27,3.27,0,0,0-2.08-3,3.2,3.2,0,1,0,2.08,3A.27.27,0,0,0,48.8,67.54Z"/><path class="cls-13" d="M36.82,61.11H80.59a.51.51,0,0,0,0-1H36.82a.51.51,0,0,0,0,1Z"/><path class="cls-13" d="M36.82,47.27h28.7a.51.51,0,0,0,0-1H36.82a.51.51,0,0,0,0,1Z"/><path class="cls-13" d="M49.88,33.44H80.66a.51.51,0,0,0,0-1H49.88a.51.51,0,0,0,0,1Z"/><circle class="cls-15" cx="53.54" cy="67.84" r="1.58"/><circle class="cls-15" cx="59.41" cy="67.84" r="1.58"/><circle class="cls-15" cx="65.28" cy="67.84" r="1.58"/><circle class="cls-12" cx="53.54" cy="53.71" r="1.58"/><circle class="cls-12" cx="59.41" cy="53.71" r="1.58"/><circle class="cls-12" cx="65.28" cy="53.71" r="1.58"/><path class="cls-13" d="M54.59,52.91a1.34,1.34,0,0,1,.13,1.45,1.31,1.31,0,0,1-1.07.69,1.33,1.33,0,0,1-1.29-1.84,1.34,1.34,0,0,1,1.21-.79.27.27,0,0,0,0-.53,1.85,1.85,0,0,0-1.63,2.72,1.84,1.84,0,1,0,3.11-2,.26.26,0,0,0-.36-.1.28.28,0,0,0-.1.36Z"/><path class="cls-13" d="M58.12,53.74a1.32,1.32,0,1,1,2.45.67,1.32,1.32,0,0,1-1.13.64.27.27,0,0,0,0,.54,1.85,1.85,0,1,0-1.85-1.85.27.27,0,0,0,.53,0Z"/><path class="cls-13" d="M64.22,53a1.32,1.32,0,1,1,0,1.56.27.27,0,1,0-.46.27,1.84,1.84,0,1,0-.05-2.09c-.19.28.27.54.46.26Z"/><circle class="cls-13" cx="58.26" cy="54.85" r="0.4"/><circle class="cls-15" cx="53.54" cy="39.91" r="1.58"/><circle class="cls-15" cx="59.41" cy="39.91" r="1.58"/><circle class="cls-15" cx="65.28" cy="39.91" r="1.58"/><path class="cls-13" d="M54.59,39.12a1.32,1.32,0,1,1-1-.49c.34,0,.34-.54,0-.53a1.84,1.84,0,0,0-1.63,2.71,1.85,1.85,0,0,0,1.49,1A1.83,1.83,0,0,0,55.06,41a1.85,1.85,0,0,0,0-2.17.27.27,0,0,0-.46.27Z"/><path class="cls-13" d="M58.12,39.94a1.32,1.32,0,1,1,2.45.68,1.34,1.34,0,0,1-1.13.64.27.27,0,0,0,0,.53,1.85,1.85,0,1,0-1.85-1.85.27.27,0,0,0,.53,0Z"/><path class="cls-13" d="M64.22,39.2a1.32,1.32,0,1,1,0,1.55.27.27,0,0,0-.36-.09.26.26,0,0,0-.1.36,1.84,1.84,0,1,0-.05-2.09c-.19.28.27.55.46.27Z"/><circle class="cls-13" cx="58.26" cy="41.06" r="0.4"/><path class="cls-13" d="M54.88,67.54a1.31,1.31,0,1,1-1.08-1.3,1.33,1.33,0,0,1,1.08,1.3c0,.34.54.34.53,0A1.87,1.87,0,0,0,54.2,65.8a1.85,1.85,0,1,0,1.21,1.74A.27.27,0,0,0,54.88,67.54Z"/><path class="cls-13" d="M60.75,67.54a1.31,1.31,0,1,1-1.08-1.3,1.32,1.32,0,0,1,1.08,1.3c0,.34.54.34.53,0a1.84,1.84,0,1,0-1.49,1.81,1.87,1.87,0,0,0,1.49-1.81A.27.27,0,0,0,60.75,67.54Z"/><path class="cls-13" d="M66.62,67.54a1.32,1.32,0,0,1-.85,1.23,1.34,1.34,0,0,1-1.49-.41,1.32,1.32,0,1,1,2.34-.82.27.27,0,0,0,.54,0A1.9,1.9,0,0,0,66,65.8a1.85,1.85,0,1,0,1.21,1.74A.27.27,0,0,0,66.62,67.54Z"/><path class="cls-13" d="M32.86,31.4l-.07,0a.11.11,0,0,1,0-.16l1.77-2.53a.11.11,0,0,1,.16,0,.11.11,0,0,1,0,.16L33,31.35A.12.12,0,0,1,32.86,31.4Z"/><path class="cls-13" d="M33.79,31.21a.07.07,0,0,1-.06,0,.11.11,0,0,1,0-.16l.94-1.31a.1.1,0,0,1,.15,0,.1.1,0,0,1,0,.15l-.94,1.32A.1.1,0,0,1,33.79,31.21Z"/><path class="cls-13" d="M36.82,76.3H55.65a.51.51,0,0,0,0-1H36.82a.51.51,0,0,0,0,1Z"/><path class="cls-13" d="M62,76.3H80.86a.51.51,0,0,0,0-1H62a.51.51,0,0,0,0,1Z"/><polyline class="cls-16" points="173.01 82.13 173.01 74.42 210.33 74.42 210.33 82.13 206.38 82.13"/><rect class="cls-16" x="183.95" y="64.76" width="17.64" height="9.81"/><path class="cls-13" d="M201.59,74.06H184l.5.51V64.76l-.5.51h17.64l-.51-.51v9.81a.51.51,0,0,0,1,0V64.76a.53.53,0,0,0-.51-.51H184a.52.52,0,0,0-.51.51v9.81a.51.51,0,0,0,.51.5h17.64A.51.51,0,0,0,201.59,74.06Z"/><path class="cls-16" d="M211.6,64.43H141.93a2,2,0,0,1-2-2V2.53a2,2,0,0,1,2-2h99.78a2,2,0,0,1,2,2V62.45a2,2,0,0,1-2,2H227.78"/><path class="cls-13" d="M234.93,1.06h4.37c1.37,0,3.72-.45,3.92,1.48.11,1.1,0,2.27,0,3.38v56c0,1-.3,1.91-1.56,2s-2.69,0-4,0h-9.87a.51.51,0,0,0,0,1h9.05c2.29,0,7.19.93,7.4-2.49.24-3.87,0-7.83,0-11.7V6.49c0-1.3.06-2.61,0-3.91A2.59,2.59,0,0,0,241.61,0c-1.72-.06-3.45,0-5.17,0h-1.51a.51.51,0,0,0,0,1Z"/><path class="cls-13" d="M141.93,63.77a1.27,1.27,0,0,1-.28,0l.17,0a2.38,2.38,0,0,1-.52-.15l.16.07a2,2,0,0,1-.43-.25l.13.1a2.16,2.16,0,0,1-.37-.37l.1.13a2,2,0,0,1-.25-.43l.07.16a2.11,2.11,0,0,1-.14-.49l0,.18c0-.09,0-.19,0-.28a.66.66,0,0,0-1.31,0,2.67,2.67,0,0,0,.78,1.86,2.73,2.73,0,0,0,1.89.78.66.66,0,0,0,0-1.32Z"/><rect class="cls-17" x="180.14" y="64.76" width="17.64" height="9.81"/><rect class="cls-18" x="180.14" y="64.76" width="17.64" height="9.81"/><path class="cls-19" d="M181.53,66.92,194,67h1.8a1.5,1.5,0,0,0,0-3l-12.49,0h-1.8a1.5,1.5,0,0,0,0,3Z"/><path class="cls-18" d="M238.11,64.43H139.4a2.86,2.86,0,0,1-2.85-2.85V3.13A2.79,2.79,0,0,1,139.34.34h98.77a2.24,2.24,0,0,1,2.25,2.24V62.19A2.25,2.25,0,0,1,238.11,64.43Z"/><rect class="cls-20" x="141.14" y="4.75" width="94.64" height="55.28" rx="1.99"/><path class="cls-19" d="M235.49,6.45V9.28a2,2,0,0,0-2-2H142.84a2,2,0,0,0-2,2V6.45a2,2,0,0,1,2-2h90.67A2,2,0,0,1,235.49,6.45Z"/><path class="cls-13" d="M180.64,67.88V64.76l-.5.51h17.64l-.51-.51v9.81l.51-.51H180.14l.5.51V70.38a.51.51,0,0,0-1,0v4.19a.51.51,0,0,0,.51.5h17.64a.51.51,0,0,0,.5-.5V64.76a.52.52,0,0,0-.5-.51H180.14a.52.52,0,0,0-.51.51v3.12a.51.51,0,0,0,1,0Z"/><rect class="cls-18" x="168.79" y="74.42" width="37.32" height="7.7"/><polygon class="cls-21" points="183.2 60.23 175.79 60.23 189.37 5.15 196.79 5.15 183.2 60.23"/><polygon class="cls-21" points="191.15 60.23 187.81 60.23 201.39 5.15 204.73 5.15 191.15 60.23"/><path class="cls-19" d="M152.15,62.87h16.11a1.5,1.5,0,0,0,0-3H152.15a1.5,1.5,0,0,0,0,3Z"/><path class="cls-19" d="M174.1,62.87h5.71a1.5,1.5,0,0,0,0-3H174.1a1.5,1.5,0,0,0,0,3Z"/><path class="cls-13" d="M168.33,1.06h69.36c.22,0,.44,0,.65,0,1.1.08,1.47.88,1.51,1.81.17,3.91,0,7.86,0,11.77V60.77c0,1.3.29,3-1.57,3.15-2.37.17-4.8,0-7.18,0H219.41a.51.51,0,0,0,0,1h16.94c1.93,0,4.4.11,4.51-2.54,0-1.07,0-2.15,0-3.22V4.3c0-1.2.21-2.61-.73-3.53S238,0,236.82,0H168.33a.51.51,0,0,0,0,1Z"/><path class="cls-13" d="M216.24,63.92H139.61c-1.22,0-2.45,0-2.55-1.66-.26-4.29,0-8.67,0-13V6.69c0-1.33-.1-2.7,0-4,.16-2.2,3.29-1.6,4.84-1.6h22.34a.51.51,0,0,0,0-1h-18c-2.5,0-5-.09-7.52,0-2.12.08-2.63,1.71-2.63,3.45V60.77c0,1.68-.12,3.71,2,4.12a14.87,14.87,0,0,0,2.67,0h75.47a.51.51,0,0,0,0-1Z"/><path class="cls-13" d="M235.27,28.92v27a9.63,9.63,0,0,1-.08,2.46c-.41,1.53-2.58,1.14-3.81,1.14H213.63a.51.51,0,0,0,0,1h17.13a24.81,24.81,0,0,0,3.34,0c1.63-.24,2.18-1.61,2.18-3.06V28.92a.51.51,0,0,0-1,0Z"/><path class="cls-13" d="M157.51,5.26h62.62c4.47,0,9-.24,13.47,0,1.22.06,1.67,1,1.67,2V24.87a.51.51,0,0,0,1,0v-16c0-1,.21-2.4-.29-3.33-.87-1.61-2.8-1.32-4.33-1.32H162.44a43.71,43.71,0,0,0-4.72,0h-.21a.51.51,0,0,0,0,1Z"/><path class="cls-19" d="M170.12,77.31H177a1.5,1.5,0,0,0,0-3h-6.85a1.5,1.5,0,0,0,0,3Z"/><path class="cls-13" d="M173.46,74.93h32.66l-.51-.51v7.71l.51-.51h-27a.51.51,0,0,0,0,1h27a.51.51,0,0,0,.5-.5V74.42a.51.51,0,0,0-.5-.5H173.46a.51.51,0,0,0,0,1Z"/><path class="cls-13" d="M169.3,76.63V74.42l-.51.51h2.74a.51.51,0,1,0,0-1h-2.74a.51.51,0,0,0-.5.5v2.21a.51.51,0,1,0,1,0Z"/><path class="cls-13" d="M174.84,81.62h-6.05l.51.51v-4a.51.51,0,0,0-1,0v4a.51.51,0,0,0,.5.5h6.05a.51.51,0,0,0,0-1Z"/><path class="cls-13" d="M141.64,14.76c0-2.63,0-5.27,0-7.9a1.52,1.52,0,0,1,1.5-1.6c.34,0,.68,0,1,0h8.76a.51.51,0,0,0,0-1h-9.77a2.55,2.55,0,0,0-2.49,2.16,30.27,30.27,0,0,0,0,3.81v4.55a.51.51,0,0,0,1,0Z"/><path class="cls-13" d="M141.64,29.82V17.58a.51.51,0,0,0-1,0V29.82a.51.51,0,0,0,1,0Z"/><path class="cls-13" d="M141.64,47.42V32.83a.51.51,0,0,0-1,0V47.42a.51.51,0,0,0,1,0Z"/><path class="cls-13" d="M208.26,59.52h-62c-1,0-2.06.08-3.07,0-1.94-.15-1.52-2.42-1.52-3.78V51.47a.51.51,0,0,0-1,0v3.78a11.06,11.06,0,0,0,.17,3.68c.61,1.61,2.13,1.6,3.54,1.6h63.92a.51.51,0,0,0,0-1Z"/><path class="cls-6" d="M144.17,13.12v7.31a1.13,1.13,0,1,0,2.25,0V13.12A1.13,1.13,0,0,0,145.3,12a1.15,1.15,0,0,0-1.13,1.13Z"/><circle class="cls-6" cx="145.32" cy="24.45" r="1.55"/><path class="cls-6" d="M137.77,6.72V14A1.13,1.13,0,1,0,140,14V6.72a1.13,1.13,0,0,0-1.12-1.13,1.15,1.15,0,0,0-1.13,1.13Z"/><circle class="cls-6" cx="138.92" cy="18.05" r="1.55"/><circle class="cls-22" cx="37.56" cy="85.65" r="1.21"/><rect class="cls-19" x="183.22" y="15.91" width="18.06" height="13.67"/><rect class="cls-6" x="181.57" y="15.91" width="18.06" height="13.67"/><path class="cls-10" d="M185.42,21.58a1.89,1.89,0,1,1,1.88-1.89A1.89,1.89,0,0,1,185.42,21.58Zm0-3.19a1.3,1.3,0,1,0,1.3,1.3A1.3,1.3,0,0,0,185.42,18.39Z"/><path class="cls-10" d="M196.12,23.67H184a.18.18,0,0,1-.19-.19.19.19,0,0,1,.19-.19h12.13a.19.19,0,0,1,.19.19A.18.18,0,0,1,196.12,23.67Z"/><path class="cls-10" d="M190.69,25H184a.19.19,0,0,1-.19-.19.19.19,0,0,1,.19-.2h6.7a.2.2,0,0,1,.19.2A.2.2,0,0,1,190.69,25Z"/><rect class="cls-19" x="183.22" y="36.93" width="18.06" height="13.67"/><rect class="cls-6" x="181.57" y="36.93" width="18.06" height="13.67"/><path class="cls-10" d="M185.42,42.6a1.89,1.89,0,1,1,1.88-1.89A1.89,1.89,0,0,1,185.42,42.6Zm0-3.19a1.3,1.3,0,1,0,1.3,1.3A1.3,1.3,0,0,0,185.42,39.41Z"/><path class="cls-10" d="M196.12,44.69H184a.18.18,0,0,1-.19-.19.19.19,0,0,1,.19-.19h12.13a.19.19,0,0,1,.19.19A.18.18,0,0,1,196.12,44.69Z"/><path class="cls-10" d="M190.69,46.06H184a.19.19,0,0,1-.19-.2.19.19,0,0,1,.19-.19h6.7a.2.2,0,0,1,.19.19A.2.2,0,0,1,190.69,46.06Z"/><rect class="cls-19" x="209.67" y="36.93" width="18.06" height="13.67"/><rect class="cls-6" x="208.02" y="36.93" width="18.06" height="13.67"/><path class="cls-10" d="M211.86,42.6a1.89,1.89,0,1,1,1.89-1.89A1.89,1.89,0,0,1,211.86,42.6Zm0-3.19a1.3,1.3,0,1,0,1.3,1.3A1.31,1.31,0,0,0,211.86,39.41Z"/><path class="cls-10" d="M222.57,44.69H210.44a.19.19,0,0,1-.2-.19.2.2,0,0,1,.2-.19h12.13a.2.2,0,0,1,.19.19A.19.19,0,0,1,222.57,44.69Z"/><path class="cls-10" d="M217.13,46.06h-6.69a.19.19,0,0,1-.19-.2.19.19,0,0,1,.19-.19h6.69a.2.2,0,1,1,0,.39Z"/><rect class="cls-19" x="209.67" y="15.91" width="18.06" height="13.67"/><rect class="cls-6" x="208.02" y="15.91" width="18.06" height="13.67"/><path class="cls-10" d="M211.86,21.58a1.89,1.89,0,1,1,1.89-1.89A1.89,1.89,0,0,1,211.86,21.58Zm0-3.19a1.3,1.3,0,1,0,1.3,1.3A1.31,1.31,0,0,0,211.86,18.39Z"/><path class="cls-10" d="M222.57,23.67H210.44a.19.19,0,0,1-.2-.19.2.2,0,0,1,.2-.19h12.13a.2.2,0,0,1,.19.19A.19.19,0,0,1,222.57,23.67Z"/><path class="cls-10" d="M217.13,25h-6.69a.19.19,0,0,1-.19-.19.19.19,0,0,1,.19-.2h6.69a.2.2,0,1,1,0,.39Z"/><rect class="cls-19" x="156.77" y="15.91" width="18.06" height="13.67"/><rect class="cls-6" x="155.13" y="15.91" width="18.06" height="13.67"/><path class="cls-10" d="M173.83,29.81h-1.42a.29.29,0,0,1,0-.58h1.42a.78.78,0,0,0,.77-.77V16.75a.77.77,0,0,0-.77-.77h-1.42a.29.29,0,0,1,0-.58h1.42a1.34,1.34,0,0,1,1.35,1.35V28.46A1.34,1.34,0,0,1,173.83,29.81Z"/><path class="cls-10" d="M159,21.58a1.89,1.89,0,1,1,1.88-1.89A1.89,1.89,0,0,1,159,21.58Zm0-3.19a1.3,1.3,0,1,0,1.3,1.3A1.3,1.3,0,0,0,159,18.39Z"/><path class="cls-10" d="M169.67,23.67H157.54a.19.19,0,0,1-.19-.19.2.2,0,0,1,.19-.19h12.13a.2.2,0,0,1,.2.19A.19.19,0,0,1,169.67,23.67Z"/><path class="cls-10" d="M164.24,25h-6.7a.2.2,0,0,1-.19-.19.2.2,0,0,1,.19-.2h6.7a.19.19,0,0,1,.19.2A.19.19,0,0,1,164.24,25Z"/><rect class="cls-19" x="156.77" y="36.93" width="18.06" height="13.67"/><rect class="cls-6" x="155.13" y="36.93" width="18.06" height="13.67"/><path class="cls-10" d="M172.31,50.83h-16.2a1.28,1.28,0,0,1-1.28-1.28V37.7a1.28,1.28,0,0,1,1.28-1.29h16.2a1.29,1.29,0,0,1,1.28,1.29V49.55A1.28,1.28,0,0,1,172.31,50.83ZM156.11,37a.7.7,0,0,0-.7.7V49.55a.7.7,0,0,0,.7.7h16.2a.71.71,0,0,0,.7-.7V37.7a.7.7,0,0,0-.7-.7Z"/><path class="cls-10" d="M173.83,50.83h-1.42a.29.29,0,0,1,0-.58h1.42a.78.78,0,0,0,.77-.77V37.77a.77.77,0,0,0-.77-.77h-1.42a.29.29,0,0,1-.29-.29.3.3,0,0,1,.29-.3h1.42a1.35,1.35,0,0,1,1.35,1.36V49.48A1.34,1.34,0,0,1,173.83,50.83Z"/><path class="cls-10" d="M159,42.6a1.89,1.89,0,1,1,1.88-1.89A1.89,1.89,0,0,1,159,42.6Zm0-3.19a1.3,1.3,0,1,0,1.3,1.3A1.3,1.3,0,0,0,159,39.41Z"/><path class="cls-10" d="M169.67,44.69H157.54a.19.19,0,0,1-.19-.19.2.2,0,0,1,.19-.19h12.13a.2.2,0,0,1,.2.19A.19.19,0,0,1,169.67,44.69Z"/><path class="cls-10" d="M164.24,46.06h-6.7a.2.2,0,0,1-.19-.2.2.2,0,0,1,.19-.19h6.7a.19.19,0,0,1,.19.19A.19.19,0,0,1,164.24,46.06Z"/><path class="cls-7" d="M228.63,56.58a.25.25,0,0,1-.14,0,.24.24,0,0,1-.05-.33L230.72,53a.23.23,0,0,1,.32-.06.23.23,0,0,1,.06.33l-2.28,3.24A.22.22,0,0,1,228.63,56.58Z"/><path class="cls-7" d="M230.31,56.58a.23.23,0,0,1-.14,0,.24.24,0,0,1,0-.33l1.2-1.68a.24.24,0,0,1,.33-.05.23.23,0,0,1,0,.32l-1.2,1.68A.23.23,0,0,1,230.31,56.58Z"/><polygon class="cls-23" points="240.48 68.79 232.5 76.77 232.5 80.8 183.66 80.8 183.66 76.77 195.69 68.79 240.48 68.79"/><line class="cls-23" x1="184.02" y1="76.96" x2="232.33" y2="76.96"/><polygon class="cls-24" points="232.5 80.8 240.67 80.8 246.54 80.7 246.64 75.18 246.64 73.93 246.64 68.8 240.67 68.79 232.57 76.68 232.5 80.8"/><path class="cls-13" d="M191,79h-7a.12.12,0,0,1-.13-.12.13.13,0,0,1,.13-.13h7a.13.13,0,0,1,.12.13A.12.12,0,0,1,191,79Z"/><path class="cls-13" d="M246.18,79h-7a.12.12,0,0,1-.12-.12.12.12,0,0,1,.12-.13h7a.13.13,0,0,1,.13.13A.12.12,0,0,1,246.18,79Z"/><path class="cls-6" d="M190.06,74.07a.36.36,0,0,1-.31-.16.37.37,0,0,1,.1-.52l6-4.08a.4.4,0,0,1,.21-.07h16.53a.38.38,0,0,1,0,.75H196.16l-5.9,4A.36.36,0,0,1,190.06,74.07Z"/><ellipse class="cls-25" cx="244.03" cy="72.13" rx="0.84" ry="1.07"/><path class="cls-13" d="M244,73.38a1.27,1.27,0,1,1,1-1.25A1.15,1.15,0,0,1,244,73.38Zm0-2.15c-.37,0-.67.41-.67.9s.3.91.67.91.68-.41.68-.91S244.4,71.23,244,71.23Z"/><ellipse class="cls-25" cx="242.03" cy="61.56" rx="0.84" ry="1.07"/><path class="cls-13" d="M242,62.8a1.27,1.27,0,1,1,1-1.24A1.14,1.14,0,0,1,242,62.8Zm0-2.15c-.37,0-.67.41-.67.91s.3.9.67.9.68-.41.68-.9S242.4,60.65,242,60.65Z"/><path class="cls-13" d="M244,72.51h4.65a5.87,5.87,0,0,0,5.49-3.09,5.71,5.71,0,0,0-1.62-7.08c-1.56-1.19-3.32-1.16-5.17-1.16H242.1a.38.38,0,0,0,0,.75h4a16.26,16.26,0,0,1,4.41.2,5,5,0,0,1,3.31,6.18,5,5,0,0,1-5,3.45H244a.38.38,0,0,0,0,.75Z"/><rect class="cls-24" x="195.23" y="73.88" width="1.95" height="1.82"/><path class="cls-13" d="M197.61,73.46h-2.42a.38.38,0,0,0-.38.38v1.81a.39.39,0,0,0,.38.38h2.42a.38.38,0,0,0,.37-.38V73.84a.38.38,0,0,0-.37-.38.39.39,0,0,0-.38.38v1.81l.38-.37h-2.42l.37.37V73.84l-.37.37h2.42a.38.38,0,0,0,0-.75Z"/><path class="cls-13" d="M197,75.72a.25.25,0,0,1-.25-.25V74a.25.25,0,1,1,.5,0v1.47A.25.25,0,0,1,197,75.72Z"/><rect class="cls-24" x="199.67" y="73.88" width="1.95" height="1.82"/><path class="cls-13" d="M202,73.46h-2.42a.38.38,0,0,0-.37.38v1.81a.38.38,0,0,0,.37.38H202a.39.39,0,0,0,.38-.38V73.84a.38.38,0,1,0-.75,0v1.81l.37-.37h-2.42l.38.37V73.84l-.38.37H202a.38.38,0,1,0,0-.75Z"/><path class="cls-13" d="M201.46,75.72a.26.26,0,0,1-.25-.25V74a.25.25,0,0,1,.25-.25.25.25,0,0,1,.25.25v1.47A.25.25,0,0,1,201.46,75.72Z"/><rect class="cls-24" x="204.1" y="73.88" width="1.95" height="1.82"/><path class="cls-13" d="M206.48,73.46h-2.42a.38.38,0,0,0-.38.38v1.81a.39.39,0,0,0,.38.38h2.42a.39.39,0,0,0,.38-.38V73.84a.39.39,0,0,0-.38-.38.38.38,0,0,0-.37.38v1.81l.37-.37h-2.42l.37.37V73.84l-.37.37h2.42a.38.38,0,1,0,0-.75Z"/><path class="cls-13" d="M205.9,75.72a.25.25,0,0,1-.25-.25V74a.25.25,0,1,1,.5,0v1.47A.25.25,0,0,1,205.9,75.72Z"/><rect class="cls-24" x="208.54" y="73.88" width="1.95" height="1.82"/><path class="cls-13" d="M210.92,73.46h-2.43a.38.38,0,0,0-.37.38v1.81a.38.38,0,0,0,.37.38h2.43a.38.38,0,0,0,.37-.38V73.84a.38.38,0,1,0-.75,0v1.81l.38-.37h-2.43l.38.37V73.84l-.38.37h2.43a.38.38,0,0,0,0-.75Z"/><path class="cls-13" d="M210.33,75.72a.26.26,0,0,1-.25-.25V74a.25.25,0,0,1,.25-.25.25.25,0,0,1,.25.25v1.47A.25.25,0,0,1,210.33,75.72Z"/><rect class="cls-24" x="212.88" y="73.88" width="1.95" height="1.82"/><path class="cls-13" d="M215.26,73.46h-2.43a.38.38,0,0,0-.37.38v1.81a.38.38,0,0,0,.37.38h2.43a.38.38,0,0,0,.37-.38V73.84a.38.38,0,1,0-.75,0v1.81l.38-.37h-2.43l.38.37V73.84l-.38.37h2.43a.38.38,0,0,0,0-.75Z"/><path class="cls-13" d="M214.67,75.72a.26.26,0,0,1-.25-.25V74a.25.25,0,0,1,.25-.25.25.25,0,0,1,.25.25v1.47A.25.25,0,0,1,214.67,75.72Z"/><rect class="cls-24" x="217.32" y="73.88" width="1.95" height="1.82"/><path class="cls-13" d="M219.69,73.46h-2.42a.39.39,0,0,0-.38.38v1.81a.39.39,0,0,0,.38.38h2.42a.39.39,0,0,0,.38-.38V73.84a.39.39,0,0,0-.38-.38.38.38,0,0,0-.37.38v1.81l.37-.37h-2.42l.37.37V73.84l-.37.37h2.42a.38.38,0,0,0,.38-.37A.39.39,0,0,0,219.69,73.46Z"/><path class="cls-13" d="M219.11,75.72a.25.25,0,0,1-.25-.25V74a.25.25,0,0,1,.5,0v1.47A.25.25,0,0,1,219.11,75.72Z"/><rect class="cls-24" x="221.75" y="73.88" width="1.95" height="1.82"/><path class="cls-13" d="M224.13,73.46H221.7a.38.38,0,0,0-.37.38v1.81a.38.38,0,0,0,.37.38h2.43a.38.38,0,0,0,.37-.38V73.84a.38.38,0,1,0-.75,0v1.81l.38-.37H221.7l.38.37V73.84l-.38.37h2.43a.38.38,0,0,0,0-.75Z"/><path class="cls-13" d="M223.55,75.72a.25.25,0,0,1-.25-.25V74a.25.25,0,0,1,.25-.25.25.25,0,0,1,.25.25v1.47A.26.26,0,0,1,223.55,75.72Z"/><rect class="cls-24" x="226.19" y="73.88" width="1.95" height="1.82"/><path class="cls-13" d="M228.56,73.46h-2.42a.39.39,0,0,0-.38.38v1.81a.39.39,0,0,0,.38.38h2.42a.39.39,0,0,0,.38-.38V73.84a.38.38,0,1,0-.75,0v1.81l.37-.37h-2.42l.37.37V73.84l-.37.37h2.42a.38.38,0,0,0,.38-.37A.39.39,0,0,0,228.56,73.46Z"/><path class="cls-13" d="M228,75.72a.25.25,0,0,1-.25-.25V74a.25.25,0,0,1,.5,0v1.47A.25.25,0,0,1,228,75.72Z"/><rect class="cls-24" x="198.59" y="70.53" width="1.95" height="1.82"/><path class="cls-13" d="M201,70.11h-2.42a.38.38,0,0,0-.38.37V72.3a.38.38,0,0,0,.38.37H201a.38.38,0,0,0,.38-.37V70.48a.38.38,0,0,0-.75,0V72.3l.37-.38h-2.42l.37.38V70.48l-.37.38H201a.38.38,0,1,0,0-.75Z"/><path class="cls-13" d="M200.38,72.36a.25.25,0,0,1-.25-.25V70.65a.25.25,0,1,1,.5,0v1.46A.25.25,0,0,1,200.38,72.36Z"/><rect class="cls-24" x="203.02" y="70.53" width="1.95" height="1.82"/><path class="cls-13" d="M205.4,70.11H203a.38.38,0,0,0-.37.37V72.3a.38.38,0,0,0,.37.37h2.43a.38.38,0,0,0,.37-.37V70.48a.38.38,0,0,0-.75,0V72.3l.38-.38H203l.38.38V70.48l-.38.38h2.43a.38.38,0,0,0,.37-.38A.38.38,0,0,0,205.4,70.11Z"/><path class="cls-13" d="M204.82,72.36a.25.25,0,0,1-.25-.25V70.65a.25.25,0,0,1,.25-.25.25.25,0,0,1,.25.25v1.46A.25.25,0,0,1,204.82,72.36Z"/><rect class="cls-24" x="207.46" y="70.53" width="1.95" height="1.82"/><path class="cls-13" d="M209.83,70.11h-2.42a.38.38,0,0,0-.38.37V72.3a.38.38,0,0,0,.38.37h2.42a.38.38,0,0,0,.38-.37V70.48a.38.38,0,0,0-.75,0V72.3l.37-.38h-2.42l.37.38V70.48l-.37.38h2.42a.38.38,0,1,0,0-.75Z"/><path class="cls-13" d="M209.25,72.36a.25.25,0,0,1-.25-.25V70.65a.25.25,0,1,1,.5,0v1.46A.25.25,0,0,1,209.25,72.36Z"/><rect class="cls-24" x="211.89" y="70.53" width="1.95" height="1.82"/><path class="cls-13" d="M214.27,70.11h-2.43a.38.38,0,0,0-.37.37V72.3a.38.38,0,0,0,.37.37h2.43a.38.38,0,0,0,.37-.37V70.48a.38.38,0,0,0-.37-.37.38.38,0,0,0-.38.37V72.3l.38-.38h-2.43l.38.38V70.48l-.38.38h2.43a.38.38,0,0,0,.37-.38A.38.38,0,0,0,214.27,70.11Z"/><path class="cls-13" d="M213.69,72.36a.25.25,0,0,1-.25-.25V70.65a.25.25,0,0,1,.25-.25.25.25,0,0,1,.25.25v1.46A.25.25,0,0,1,213.69,72.36Z"/><rect class="cls-24" x="216.23" y="70.53" width="1.95" height="1.82"/><path class="cls-13" d="M218.61,70.11h-2.42a.38.38,0,0,0-.38.37V72.3a.38.38,0,0,0,.38.37h2.42a.38.38,0,0,0,.37-.37V70.48a.38.38,0,0,0-.37-.37.38.38,0,0,0-.38.37V72.3l.38-.38h-2.42l.37.38V70.48l-.37.38h2.42a.38.38,0,0,0,.37-.38A.37.37,0,0,0,218.61,70.11Z"/><path class="cls-13" d="M218,72.36a.25.25,0,0,1-.25-.25V70.65a.25.25,0,0,1,.5,0v1.46A.25.25,0,0,1,218,72.36Z"/><rect class="cls-24" x="220.67" y="70.53" width="1.95" height="1.82"/><path class="cls-13" d="M223,70.11h-2.42a.38.38,0,0,0-.37.37V72.3a.38.38,0,0,0,.37.37H223a.38.38,0,0,0,.38-.37V70.48a.38.38,0,0,0-.75,0V72.3l.37-.38h-2.42l.38.38V70.48l-.38.38H223a.39.39,0,0,0,.38-.38A.38.38,0,0,0,223,70.11Z"/><path class="cls-13" d="M222.46,72.36a.25.25,0,0,1-.25-.25V70.65a.25.25,0,0,1,.5,0v1.46A.25.25,0,0,1,222.46,72.36Z"/><rect class="cls-24" x="225.1" y="70.53" width="1.95" height="1.82"/><path class="cls-13" d="M227.48,70.11h-2.42a.38.38,0,0,0-.38.37V72.3a.38.38,0,0,0,.38.37h2.42a.38.38,0,0,0,.38-.37V70.48a.38.38,0,0,0-.38-.37.38.38,0,0,0-.37.37V72.3l.37-.38h-2.42l.37.38V70.48l-.37.38h2.42a.39.39,0,0,0,.38-.38A.38.38,0,0,0,227.48,70.11Z"/><path class="cls-13" d="M226.9,72.36a.25.25,0,0,1-.25-.25V70.65a.25.25,0,0,1,.5,0v1.46A.25.25,0,0,1,226.9,72.36Z"/><rect class="cls-24" x="229.54" y="70.53" width="1.95" height="1.82"/><path class="cls-13" d="M231.92,70.11h-2.43a.38.38,0,0,0-.37.37V72.3a.38.38,0,0,0,.37.37h2.43a.38.38,0,0,0,.37-.37V70.48a.38.38,0,0,0-.75,0V72.3l.38-.38h-2.43l.38.38V70.48l-.38.38h2.43a.38.38,0,0,0,.37-.38A.38.38,0,0,0,231.92,70.11Z"/><path class="cls-13" d="M231.33,72.36a.25.25,0,0,1-.25-.25V70.65a.25.25,0,0,1,.25-.25.25.25,0,0,1,.25.25v1.46A.25.25,0,0,1,231.33,72.36Z"/><path class="cls-19" d="M173.9,30.7H159a.5.5,0,0,1-.5-.5.5.5,0,0,1,.5-.5h15a1.3,1.3,0,0,0,1.3-1.3V18.53a.5.5,0,0,1,1,0V28.4A2.31,2.31,0,0,1,173.9,30.7Z"/><path class="cls-19" d="M173.9,51.92H159a.5.5,0,0,1,0-1h15a1.3,1.3,0,0,0,1.3-1.3V39.75a.5.5,0,0,1,1,0v9.87A2.3,2.3,0,0,1,173.9,51.92Z"/><path class="cls-19" d="M200.3,30.7h-15a.5.5,0,0,1-.5-.5.5.5,0,0,1,.5-.5h15a1.3,1.3,0,0,0,1.3-1.3V18.53a.5.5,0,0,1,1,0V28.4A2.31,2.31,0,0,1,200.3,30.7Z"/><path class="cls-19" d="M200.3,51.73h-15a.5.5,0,0,1,0-1h15a1.3,1.3,0,0,0,1.3-1.3V39.56a.5.5,0,0,1,1,0v9.87A2.3,2.3,0,0,1,200.3,51.73Z"/><path class="cls-19" d="M226.75,30.7h-15a.51.51,0,0,1-.5-.5.5.5,0,0,1,.5-.5h15a1.31,1.31,0,0,0,1.3-1.3V18.53a.5.5,0,0,1,.5-.5.5.5,0,0,1,.5.5V28.4A2.31,2.31,0,0,1,226.75,30.7Z"/><path class="cls-19" d="M226.8,51.82h-15a.5.5,0,0,1,0-1h15a1.3,1.3,0,0,0,1.3-1.3V39.65a.5.5,0,0,1,1,0v9.87A2.3,2.3,0,0,1,226.8,51.82Z"/><path class="cls-10" d="M172.31,29.81h-16.2a1.28,1.28,0,0,1-1.28-1.28V16.68a1.28,1.28,0,0,1,1.28-1.28h16.2a1.28,1.28,0,0,1,1.28,1.28V28.53A1.28,1.28,0,0,1,172.31,29.81ZM156.11,16a.7.7,0,0,0-.7.7V28.53a.7.7,0,0,0,.7.7h16.2a.71.71,0,0,0,.7-.7V16.68a.7.7,0,0,0-.7-.7Z"/><path class="cls-10" d="M198.75,29.81H182.56a1.28,1.28,0,0,1-1.29-1.28V16.68a1.28,1.28,0,0,1,1.29-1.28h16.19A1.28,1.28,0,0,1,200,16.68V28.53A1.28,1.28,0,0,1,198.75,29.81ZM182.56,16a.7.7,0,0,0-.7.7V28.53a.7.7,0,0,0,.7.7h16.19a.7.7,0,0,0,.7-.7V16.68a.7.7,0,0,0-.7-.7Z"/><path class="cls-10" d="M200.28,29.81h-1.42a.29.29,0,1,1,0-.58h1.42a.78.78,0,0,0,.77-.77V16.75a.77.77,0,0,0-.77-.77h-1.42a.29.29,0,1,1,0-.58h1.42a1.35,1.35,0,0,1,1.35,1.35V28.46A1.35,1.35,0,0,1,200.28,29.81Z"/><path class="cls-10" d="M225.2,29.81H209a1.28,1.28,0,0,1-1.28-1.28V16.68A1.28,1.28,0,0,1,209,15.4h16.2a1.28,1.28,0,0,1,1.28,1.28V28.53A1.28,1.28,0,0,1,225.2,29.81ZM209,16a.7.7,0,0,0-.7.7V28.53a.71.71,0,0,0,.7.7h16.2a.7.7,0,0,0,.7-.7V16.68a.7.7,0,0,0-.7-.7Z"/><path class="cls-10" d="M226.72,29.81H225.3a.29.29,0,1,1,0-.58h1.42a.77.77,0,0,0,.77-.77V16.75a.76.76,0,0,0-.77-.77H225.3a.29.29,0,1,1,0-.58h1.42a1.35,1.35,0,0,1,1.36,1.35V28.46A1.35,1.35,0,0,1,226.72,29.81Z"/><path class="cls-10" d="M198.75,50.83H182.56a1.28,1.28,0,0,1-1.29-1.28V37.7a1.29,1.29,0,0,1,1.29-1.29h16.19A1.29,1.29,0,0,1,200,37.7V49.55A1.28,1.28,0,0,1,198.75,50.83ZM182.56,37a.7.7,0,0,0-.7.7V49.55a.7.7,0,0,0,.7.7h16.19a.7.7,0,0,0,.7-.7V37.7a.7.7,0,0,0-.7-.7Z"/><path class="cls-10" d="M200.28,50.83h-1.42a.29.29,0,1,1,0-.58h1.42a.78.78,0,0,0,.77-.77V37.77a.77.77,0,0,0-.77-.77h-1.42a.29.29,0,0,1-.29-.29.3.3,0,0,1,.29-.3h1.42a1.36,1.36,0,0,1,1.35,1.36V49.48A1.35,1.35,0,0,1,200.28,50.83Z"/><path class="cls-10" d="M225.2,50.83H209a1.28,1.28,0,0,1-1.28-1.28V37.7A1.29,1.29,0,0,1,209,36.41h16.2a1.28,1.28,0,0,1,1.28,1.29V49.55A1.28,1.28,0,0,1,225.2,50.83ZM209,37a.7.7,0,0,0-.7.7V49.55a.71.71,0,0,0,.7.7h16.2a.7.7,0,0,0,.7-.7V37.7a.7.7,0,0,0-.7-.7Z"/><path class="cls-10" d="M226.72,50.83H225.3a.29.29,0,0,1,0-.58h1.42a.77.77,0,0,0,.77-.77V37.77a.76.76,0,0,0-.77-.77H225.3a.29.29,0,0,1-.29-.29.3.3,0,0,1,.29-.3h1.42a1.36,1.36,0,0,1,1.36,1.36V49.48A1.35,1.35,0,0,1,226.72,50.83Z"/><path class="cls-12" d="M78.9,28.35H37a1,1,0,0,1,0-2H78.9a1,1,0,0,1,0,2Z"/><path class="cls-13" d="M80.5,69.36V81.51c0,1-.38,1.33-1.33,1.33H36.49l.51.5V26.54l-.51.5H47.13a.51.51,0,0,0,0-1H36.49a.52.52,0,0,0-.51.51v56.8a.52.52,0,0,0,.51.51H79.13c1.14,0,2.24-.17,2.38-1.59.21-2.1,0-4.33,0-6.45V69.36a.51.51,0,0,0-1,0Z"/><path class="cls-13" d="M62.62,27,79.23,27c.67,0,1.21,0,1.27.82s0,1.94,0,2.89V49a.51.51,0,0,0,1,0V31.26c0-1.55.69-5.09-1.63-5.23-2.73-.17-5.53,0-8.27,0l-9,0a.51.51,0,0,0,0,1Z"/><path class="cls-13" d="M49.89,27H60.73a.51.51,0,0,0,0-1H49.89a.51.51,0,0,0,0,1Z"/><path class="cls-22" d="M41.65,86.22H16.2a.57.57,0,1,1,0-1.14H41.65a.57.57,0,1,1,0,1.14Z"/><path class="cls-13" d="M81.32,42.25H98.76a.53.53,0,0,0,0-1H81.32a.53.53,0,0,0,0,1Z"/><path class="cls-13" d="M116.77,42.28l17.22,0h2.47a.53.53,0,0,0,0-1l-17.21,0h-2.48a.53.53,0,0,0,0,1.05Z"/><path class="cls-26" d="M233.24,80a.5.5,0,0,1-.5-.5V77.15a.52.52,0,0,1,.14-.35l7.7-7.8a.5.5,0,0,1,.71.7l-7.55,7.66v2.16A.5.5,0,0,1,233.24,80Z"/><path class="cls-13" d="M184,77.43h48.31a.45.45,0,0,0,0-.9H184a.45.45,0,0,0,0,.9Z"/><path class="cls-13" d="M240.09,68.49l-6.31,6.32c-.54.53-1.6,1.24-1.8,2a8.83,8.83,0,0,0,0,2v2l.45-.45H183.59l.45.45V77.38c0-.12.07-.43,0-.52s-.29.29-.16.28.53-.35.67-.44l6.62-4.4,3.27-2.18c.33-.22.68-.42,1-.66s.63-.29.18-.2a13,13,0,0,1,2.42,0h42.37a.45.45,0,0,0,0-.9H198.62a16.26,16.26,0,0,0-3,0,2.32,2.32,0,0,0-.89.47l-2.87,1.91-7.7,5.11c-.54.35-1,.5-1.06,1.16a34.59,34.59,0,0,0,0,3.81.46.46,0,0,0,.45.45h48.84a.46.46,0,0,0,.45-.45c0-1.32,0-2.64,0-4,0,0-.28.31,0,.13a3.59,3.59,0,0,0,.39-.39l1.45-1.46,6-6A.45.45,0,0,0,240.09,68.49Z"/><path class="cls-13" d="M232.43,81.27h14.23a.46.46,0,0,0,.45-.45v-12a.46.46,0,0,0-.45-.45h-4.54a.45.45,0,0,0,0,.9h4.54l-.45-.45v12l.45-.45H232.43a.45.45,0,0,0,0,.9Z"/><rect class="cls-27" x="8.09" y="80.47" width="244.58" height="9.36"/><rect class="cls-28" x="8.3" y="80.32" width="244.58" height="4.01"/><rect class="cls-29" x="7.92" y="87.47" width="244.58" height="2.01"/><path class="cls-30" d="M252.78,86.5h0c-23-.15-42.57-.83-61.48-1.5-17.54-.61-34.11-1.19-50.65-1.19-18.39,0-32.87.64-48.21,1.31-8.76.39-17.82.79-28.14,1.09A540.55,540.55,0,0,1,8,84.37a.41.41,0,0,1-.39-.45A.42.42,0,0,1,8,83.53a539,539,0,0,0,56.26,1.84c10.31-.31,19.36-.71,28.12-1.09C107.75,83.6,122.25,83,140.65,83c16.55,0,33.13.59,50.68,1.2,18.9.66,38.44,1.35,61.45,1.49a.43.43,0,0,1,0,.85Z"/><path class="cls-30" d="M140.09,87.09c-12.36-.08-24.82-.58-37-1.48a693.27,693.27,0,0,0-94.83.6.42.42,0,1,1-.06-.84,691.69,691.69,0,0,1,94.94-.6c12.22.9,24.66,1.4,37,1.47,16.54,0,33.11-.58,50.65-1.19,18.91-.67,38.46-1.35,61.48-1.5h0a.43.43,0,0,1,0,.85c-23,.14-42.55.83-61.45,1.49C173.22,86.51,156.64,87.09,140.09,87.09Z"/><path class="cls-13" d="M129.93,80.83H250.65a6.84,6.84,0,0,0,1.63,0,.81.81,0,0,1,.22,0l-.51-.51v9.36l.51-.51H11.6a27.44,27.44,0,0,0-3.27,0,2.8,2.8,0,0,1-.41,0l.51.51V80.32l-.51.51h6.27a.51.51,0,0,0,0-1H7.92a.52.52,0,0,0-.5.51v9.36a.51.51,0,0,0,.5.51H242.58c3.17,0,6.34,0,9.51,0h.41a.51.51,0,0,0,.5-.51V80.32a.52.52,0,0,0-.5-.51H134.93a47.63,47.63,0,0,0-4.78,0h-.22a.51.51,0,0,0,0,1Z"/><path class="cls-13" d="M97.89,80.83h29a.51.51,0,0,0,0-1h-29a.51.51,0,0,0,0,1Z"/><path class="cls-13" d="M18.64,80.83H95a.51.51,0,0,0,0-1H18.64a.51.51,0,0,0,0,1Z"/><path class="cls-31" d="M155.55,26.75h0a6.42,6.42,0,0,1-6.42-6.42V12.57l6.45-2.71L162,12.57v7.76A6.41,6.41,0,0,1,155.55,26.75Z"/><path class="cls-32" d="M162,12.64V20.4a6.42,6.42,0,0,1-6.42,6.42V9.94h0Z"/><path class="cls-13" d="M150.86,24.15a6.16,6.16,0,0,1-1.35-3.82c0-.41,0-.83,0-1.24V15.44a.38.38,0,0,0-.75,0v3.88a14.61,14.61,0,0,0,0,1.75,7,7,0,0,0,1.53,3.61c.31.38.83-.16.53-.53Z"/><path class="cls-13" d="M161.6,18.59c0,.76,0,1.55,0,2.31a6,6,0,0,1-1.65,3.61,6.11,6.11,0,0,1-8.06.61c-.39-.28-.76.37-.38.65a6.79,6.79,0,0,0,10.85-4.94c0-.74,0-1.5,0-2.24a.38.38,0,0,0-.75,0Z"/><path class="cls-13" d="M149.51,13.88V12.57l-.28.36,5.62-2.36a3.53,3.53,0,0,0,.82-.34c0,.09-.39-.16-.18,0a2,2,0,0,0,.4.17l3.28,1.4,2.61,1.11-.18-.33,0,4.51a.38.38,0,0,0,.75,0l0-4.51a.36.36,0,0,0-.19-.32l-5.68-2.41a4.87,4.87,0,0,0-.71-.3.9.9,0,0,0-.69.13l-3.29,1.38L149,12.21a.4.4,0,0,0-.27.36v1.31a.38.38,0,0,0,.75,0Z"/><path class="cls-6" d="M152.73,19.66l2.09,1.48a.91.91,0,0,0,1.22-.31l2.57-3.75.37-.54a.89.89,0,0,0-.32-1.21.91.91,0,0,0-1.22.31l-2.57,3.75-.37.54,1.22-.32-2.09-1.49a.89.89,0,0,0-1.21.32.91.91,0,0,0,.31,1.22Z"/><path class="cls-31" d="M107.83,50.19h0a6.42,6.42,0,0,1-6.41-6.42V36l6.45-2.72L114.25,36v7.76A6.42,6.42,0,0,1,107.83,50.19Z"/><path class="cls-32" d="M114.25,36.07v7.76a6.42,6.42,0,0,1-6.42,6.42V33.37h0Z"/><path class="cls-13" d="M103.15,47.59a6.13,6.13,0,0,1-1.36-3.82v-4.9a.38.38,0,0,0-.75,0v3.89a17,17,0,0,0,0,1.75,6.92,6.92,0,0,0,1.54,3.61c.3.37.83-.16.53-.53Z"/><path class="cls-13" d="M113.88,42c0,.77,0,1.55,0,2.32A6,6,0,0,1,112.2,48a6.12,6.12,0,0,1-8.06.61c-.38-.29-.76.36-.37.65a6.79,6.79,0,0,0,10.84-4.94c.06-.75,0-1.5,0-2.25a.38.38,0,0,0-.75,0Z"/><path class="cls-13" d="M101.79,37.32V36l-.27.36L107.13,34c.09,0,.8-.25.82-.35,0,.09-.39-.15-.18,0a2,2,0,0,0,.4.17l3.28,1.39,2.61,1.11-.18-.32,0,4.51a.38.38,0,0,0,.75,0l0-4.51a.37.37,0,0,0-.19-.33l-5.67-2.41a6.29,6.29,0,0,0-.71-.3c-.29-.08-.43,0-.7.13l-3.29,1.39-2.75,1.16A.38.38,0,0,0,101,36v1.31a.38.38,0,0,0,.75,0Z"/><path class="cls-6" d="M105,43.09l2.08,1.49a.91.91,0,0,0,1.22-.32l2.57-3.75.37-.53a.89.89,0,0,0-.32-1.22.92.92,0,0,0-1.22.32l-2.57,3.75-.37.53L108,43l-2.08-1.49a.9.9,0,0,0-1.22.32.92.92,0,0,0,.32,1.22Z"/><path class="cls-31" d="M184.35,26.75h0a6.42,6.42,0,0,1-6.42-6.42V12.57l6.45-2.71,6.39,2.71v7.76A6.41,6.41,0,0,1,184.35,26.75Z"/><path class="cls-32" d="M190.77,12.64V20.4a6.42,6.42,0,0,1-6.42,6.42V9.94h0Z"/><path class="cls-13" d="M179.66,24.15a6.16,6.16,0,0,1-1.35-3.82c0-.41,0-.83,0-1.24V15.44a.38.38,0,0,0-.75,0v3.88a14.61,14.61,0,0,0,0,1.75,7,7,0,0,0,1.53,3.61c.31.38.83-.16.53-.53Z"/><path class="cls-13" d="M190.4,18.59c0,.76,0,1.55,0,2.31a6,6,0,0,1-1.65,3.61,6.11,6.11,0,0,1-8.06.61c-.39-.28-.76.37-.38.65a6.79,6.79,0,0,0,10.85-4.94c.05-.74,0-1.5,0-2.24a.38.38,0,0,0-.75,0Z"/><path class="cls-13" d="M178.31,13.88V12.57l-.28.36,5.62-2.36a3.53,3.53,0,0,0,.82-.34c0,.09-.39-.16-.18,0a2,2,0,0,0,.4.17l3.28,1.4,2.61,1.11-.18-.33,0,4.51a.38.38,0,0,0,.75,0l0-4.51a.36.36,0,0,0-.19-.32l-5.68-2.41a4.87,4.87,0,0,0-.71-.3.9.9,0,0,0-.69.13l-3.29,1.38-2.76,1.16a.4.4,0,0,0-.27.36v1.31a.38.38,0,0,0,.75,0Z"/><path class="cls-6" d="M181.53,19.66l2.09,1.48a.91.91,0,0,0,1.22-.31l2.57-3.75.37-.54a.89.89,0,0,0-.32-1.21.91.91,0,0,0-1.22.31l-2.57,3.75-.37.54,1.22-.32-2.09-1.49a.89.89,0,0,0-1.21.32.91.91,0,0,0,.31,1.22Z"/><polygon class="cls-33" points="109.84 13.57 101.16 13.57 101.16 13.06 109.33 13.06 109.33 7 120.27 7 120.27 7.51 109.84 7.51 109.84 13.57"/><polygon class="cls-33" points="118.95 19.53 105.25 19.53 105.25 13.6 105.76 13.6 105.76 19.03 118.95 19.03 118.95 19.53"/><rect class="cls-33" x="110.71" y="13.06" width="5.55" height="0.5"/><path class="cls-33" d="M104.6,25.59H90.86V19H104.6Zm-13.24-.5H104.1V19.53H91.36Z"/><polygon class="cls-33" points="130.87 67.82 123.24 67.82 123.24 62.49 114.07 62.49 114.07 62.05 123.68 62.05 123.68 67.38 130.87 67.38 130.87 67.82"/><polygon class="cls-33" points="127.27 73.06 115.23 73.06 115.23 72.62 126.83 72.62 126.83 67.85 127.27 67.85 127.27 73.06"/><rect class="cls-33" x="117.59" y="67.38" width="4.88" height="0.44"/><path class="cls-33" d="M139.92,78.38H127.84V72.62h12.08Zm-11.64-.44h11.19V73.06H128.28Z"/><path class="cls-34" d="M142.65,69.1h1.86a.64.64,0,1,0,0-1.27h-1.86a.64.64,0,1,0,0,1.27Z"/><path class="cls-35" d="M136.75,74.51H147.4l.36-.6c1.51-2.55,2.11-8.74,1.67-11.67H138.76c.44,2.93-.15,9.13-1.67,11.67Z"/><path class="cls-36" d="M146,74.79h1.2l.36-.59c1.52-2.55,2.11-8.75,1.67-11.68H148c.44,2.93.89,12-11.11,12Z"/><path class="cls-13" d="M140.67,64.5h5.6a.29.29,0,0,0,0-.58h-5.6a.29.29,0,0,0,0,.58Z"/><path class="cls-13" d="M140.79,66.39h4.36a.29.29,0,0,0,0-.58h-4.36a.29.29,0,0,0,0,.58Z"/><path class="cls-13" d="M140.67,68.17h5.6a.29.29,0,0,0,0-.58h-5.6a.29.29,0,0,0,0,.58Z"/><path class="cls-13" d="M140.31,70.06h4.84a.29.29,0,0,0,0-.58h-4.84a.29.29,0,0,0,0,.58Z"/><path class="cls-6" d="M149,68.43a.36.36,0,0,0,.27-.27,17.23,17.23,0,0,0,.33-4.06.34.34,0,0,0-.67,0,17.48,17.48,0,0,1-.32,3.89.33.33,0,0,0,.25.4Z"/><path class="cls-6" d="M147.49,74a.33.33,0,0,0,.32-.19A17.61,17.61,0,0,0,149,69.87a.33.33,0,0,0-.26-.39h0a.35.35,0,0,0-.4.27,16.67,16.67,0,0,1-1.17,3.71.34.34,0,0,0,.16.45A.2.2,0,0,0,147.49,74Z"/><path class="cls-13" d="M142.63,74.93h4.09a3.66,3.66,0,0,0,.74,0c.39-.1.62-.72.8-1.06A9.89,9.89,0,0,0,149,72a25.06,25.06,0,0,0,.86-4.79,22,22,0,0,0,0-5.07.42.42,0,0,0-.4-.3H147a.42.42,0,0,0,0,.84h2.41l-.41-.31A22.55,22.55,0,0,1,148.8,69,14.75,14.75,0,0,1,147,74.3l.36-.21h-4.77a.42.42,0,0,0,0,.84Z"/><path class="cls-13" d="M145.33,61.82h-6.56a.42.42,0,0,0-.4.53,22.82,22.82,0,0,1-.22,6.6,14.57,14.57,0,0,1-1.77,5.35.42.42,0,0,0,.37.63h3.09a.42.42,0,0,0,0-.84h-3.09l.36.64A15.24,15.24,0,0,0,139,69a24.12,24.12,0,0,0,.2-6.89l-.41.54h6.56a.42.42,0,0,0,0-.84Z"/><path class="cls-6" d="M146.6,72.64a.58.58,0,0,1-.18,0,.45.45,0,0,1-.23-.6,14,14,0,0,0,1-3.23.44.44,0,0,1,.52-.37.45.45,0,0,1,.38.52,14.67,14.67,0,0,1-1,3.44A.46.46,0,0,1,146.6,72.64Z"/><circle class="cls-13" cx="16.44" cy="80.4" r="0.71"/><path class="cls-13" d="M109.79,47.3l1.48-2.11.21-.3c.12-.18-.17-.34-.29-.17l-1.48,2.11-.21.3c-.13.18.16.34.29.17Z"/><path class="cls-13" d="M111,47.3l.78-1.09.12-.16a.18.18,0,0,0-.06-.23.17.17,0,0,0-.23.06L110.86,47l-.11.16a.16.16,0,0,0,.06.23.16.16,0,0,0,.22-.06Z"/></g></g></svg>